<?xml version="1.0" standalone="no"?>
<!DOCTYPE svg PUBLIC "-//W3C//DTD SVG 20010904//EN"
 "http://www.w3.org/TR/2001/REC-SVG-20010904/DTD/svg10.dtd">
<svg version="1.0" xmlns="http://www.w3.org/2000/svg"
 width="1024.000000pt" height="1024.000000pt" viewBox="0 0 1024.000000 1024.000000"
 preserveAspectRatio="xMidYMid meet">
<metadata>
Created by potrace 1.16, written by Peter Selinger 2001-2019
</metadata>
<g transform="translate(0.000000,1024.000000) scale(0.100000,-0.100000)"
fill="#111111" stroke="none">
<path d="M20 10220 c-20 -20 -20 -33 -20 -5100 0 -5067 0 -5080 20 -5100 20
-20 33 -20 5100 -20 5067 0 5080 0 5100 20 20 20 20 33 20 5100 0 5067 0 5080
-20 5100 -20 20 -33 20 -5100 20 -5067 0 -5080 0 -5100 -20z m5282 -1135 c348
-61 625 -267 842 -628 92 -154 94 -156 1457 -3108 164 -356 310 -682 324 -725
124 -374 -104 -772 -501 -874 -110 -29 -280 -29 -389 -1 -95 25 -236 91 -322
152 -93 67 -248 206 -373 337 -244 254 -409 388 -588 477 -375 186 -851 197
-1232 29 -204 -89 -337 -190 -675 -513 -303 -289 -502 -418 -740 -481 -251
-66 -471 -18 -637 139 -185 174 -245 388 -172 609 9 26 114 268 234 537 324
728 533 1190 1102 2440 226 495 428 934 450 975 180 333 444 547 773 623 100
23 107 24 241 26 69 0 158 -5 206 -14z m776 -5702 c97 -72 84 -207 -25 -255
-65 -29 -116 -18 -172 38 -43 43 -43 44 -39 104 5 63 19 88 73 122 39 25 124
20 163 -9z m-3413 -8 c25 -17 710 -1568 701 -1590 -4 -12 -27 -15 -125 -15
-66 0 -127 3 -136 6 -21 9 -34 35 -126 263 -44 108 -87 202 -96 209 -13 9
-101 12 -358 12 -258 0 -345 -3 -357 -12 -9 -7 -53 -110 -97 -228 -92 -246
-105 -266 -175 -255 -22 4 -49 9 -58 11 -36 11 -62 -54 402 1004 293 667 266
623 360 613 25 -2 54 -10 65 -18z m2295 -20 c347 -66 537 -230 617 -533 36
-134 38 -342 4 -477 -55 -224 -183 -388 -374 -479 -150 -71 -289 -96 -572
-102 -115 -3 -259 -2 -320 3 l-109 8 1 789 c1 434 5 792 10 796 15 16 78 18
368 15 216 -2 312 -7 375 -20z m-1110 -785 c3 -437 5 -796 4 -798 0 -1 -57 -5
-125 -9 -158 -8 -165 -3 -153 96 4 36 8 386 8 776 1 391 5 716 9 723 6 9 40
12 130 10 l122 -3 5 -795z m4190 700 c18 -18 20 -33 20 -180 l0 -160 153 0
c83 0 157 -4 163 -8 18 -12 34 -49 28 -65 -8 -23 -37 -27 -185 -27 -105 0
-139 -3 -148 -14 -9 -11 -11 -121 -9 -423 l3 -408 27 -46 c48 -81 142 -97 243
-40 66 37 70 38 90 7 23 -34 5 -70 -52 -106 -66 -42 -143 -63 -232 -62 -139 1
-244 61 -298 170 l-28 57 -3 420 c-2 279 -7 424 -14 432 -7 8 -35 13 -78 13
-62 0 -71 2 -89 26 -12 15 -21 33 -21 40 0 19 38 40 84 49 57 10 129 49 161
87 35 42 71 120 80 175 4 29 15 50 32 63 32 25 48 25 73 0z m-900 -326 c204
-60 328 -216 361 -450 17 -126 64 -114 -436 -114 -481 0 -445 6 -445 -69 0
-51 25 -142 56 -203 78 -155 281 -250 455 -213 93 19 164 58 231 126 32 33 66
59 76 59 26 0 42 -20 42 -53 0 -24 -16 -45 -77 -106 -125 -122 -266 -181 -438
-183 -112 0 -168 12 -271 62 -103 50 -226 162 -272 248 -60 113 -80 339 -42
486 27 107 73 189 151 268 116 118 268 172 459 163 53 -3 120 -12 150 -21z
m-1036 -13 c4 -5 8 -264 9 -575 3 -441 1 -568 -9 -576 -7 -6 -58 -10 -124 -8
l-113 3 1 569 c0 313 4 572 9 577 12 11 50 16 140 18 45 0 84 -3 87 -8z"/>
<path d="M4963 7530 c-121 -61 -174 -140 -326 -490 -277 -635 -932 -2151 -944
-2185 -21 -57 -21 -157 0 -189 39 -59 146 -21 279 101 160 145 322 236 688
388 102 42 239 103 306 135 516 254 804 634 805 1064 0 179 -36 307 -192 669
-113 264 -162 351 -233 422 -79 77 -144 108 -241 113 -74 3 -85 1 -142 -28z
m189 -292 c36 -39 245 -497 294 -645 76 -225 62 -391 -47 -571 -160 -263 -500
-486 -1019 -666 -110 -39 -145 -44 -153 -22 -9 22 7 75 47 156 20 41 137 311
260 600 311 728 491 1131 516 1158 31 32 67 28 102 -10z"/>
<path d="M2393 2806 c-152 -309 -163 -344 -118 -389 49 -48 116 -60 304 -54
178 6 224 14 229 40 3 16 -265 677 -275 677 -2 0 -65 -124 -140 -274z"/>
<path d="M4528 3273 c-20 -2 -42 -11 -50 -20 -18 -23 -19 -1346 -1 -1364 9 -9
60 -12 175 -12 251 1 367 40 488 162 72 72 124 163 160 276 27 87 39 330 21
428 -55 291 -207 459 -461 510 -79 16 -270 28 -332 20z"/>
<path d="M6875 2857 c-93 -31 -144 -75 -189 -165 -24 -48 -66 -173 -66 -198 0
-12 52 -14 315 -14 l315 0 0 30 c0 91 -58 240 -111 285 -76 63 -183 88 -264
62z"/>
</g>
</svg>
