<?xml version="1.0" standalone="no"?>
<!DOCTYPE svg PUBLIC "-//W3C//DTD SVG 20010904//EN"
 "http://www.w3.org/TR/2001/REC-SVG-20010904/DTD/svg10.dtd">
<svg version="1.0" xmlns="http://www.w3.org/2000/svg"
 width="1024.000000pt" height="1024.000000pt" viewBox="0 0 1024.000000 1024.000000"
 preserveAspectRatio="xMidYMid meet">
<metadata>
Created by potrace 1.16, written by Peter Selinger 2001-2019
</metadata>
<g transform="translate(0.000000,1024.000000) scale(0.100000,-0.100000)"
fill="#ffffff" stroke="none">
<path d="M0 5120 l0 -5120 5120 0 5120 0 0 5120 0 5120 -5120 0 -5120 0 0
-5120z m5302 3965 c348 -60 626 -268 842 -628 77 -128 156 -293 574 -1197 219
-476 575 -1246 790 -1711 215 -466 403 -882 417 -925 124 -374 -104 -773 -501
-874 -110 -28 -280 -29 -389 0 -93 24 -219 81 -305 140 -101 68 -193 152 -428
387 -123 122 -261 251 -307 286 -275 206 -548 297 -890 298 -220 1 -400 -35
-585 -117 -204 -89 -334 -187 -664 -503 -316 -300 -510 -428 -751 -491 -251
-66 -471 -18 -637 139 -185 174 -246 389 -172 609 32 92 519 1181 1159 2587
210 462 424 932 476 1045 168 371 235 484 363 618 180 188 404 306 656 345 65
10 275 6 352 -8z m752 -5689 c60 -25 102 -104 89 -168 -9 -44 -61 -94 -112
-108 -57 -15 -117 6 -162 57 -29 33 -31 41 -27 94 3 39 11 66 24 80 50 57 120
73 188 45z m-3389 -21 c25 -16 710 -1568 701 -1590 -4 -12 -28 -15 -125 -15
-66 0 -127 3 -136 6 -21 9 -34 35 -126 263 -44 108 -87 202 -96 209 -13 9
-101 12 -358 12 -258 0 -345 -3 -357 -12 -9 -7 -53 -110 -97 -228 -92 -246
-105 -266 -175 -255 -65 10 -76 15 -76 35 0 20 57 154 398 930 315 717 287
658 314 662 38 6 112 -3 133 -17z m2290 -19 c346 -63 542 -230 622 -534 36
-133 38 -342 5 -475 -67 -270 -243 -457 -502 -531 -160 -46 -498 -67 -760 -49
l-114 8 1 789 c1 434 5 792 10 797 15 15 78 17 363 14 208 -2 309 -7 375 -19z
m-1105 -786 c3 -437 5 -796 4 -797 0 -1 -56 -5 -125 -9 -158 -9 -165 -4 -153
95 4 36 8 386 8 776 1 391 5 716 9 723 6 9 40 12 130 10 l122 -3 5 -795z
m4190 700 c18 -18 20 -33 20 -180 l0 -160 153 0 c83 0 157 -4 163 -8 18 -12
34 -49 28 -65 -8 -23 -37 -27 -185 -27 -105 0 -139 -3 -148 -14 -9 -11 -11
-121 -9 -423 3 -404 3 -408 26 -451 17 -33 35 -49 68 -64 56 -24 108 -18 181
23 64 35 68 35 88 5 23 -34 5 -70 -52 -106 -66 -42 -143 -63 -232 -62 -139 1
-244 61 -298 170 l-28 57 -3 420 c-2 279 -7 424 -14 432 -6 8 -34 13 -75 13
-55 0 -67 4 -88 25 -14 13 -25 31 -25 39 0 21 36 42 84 51 57 10 129 49 161
87 35 42 71 120 80 175 4 29 15 50 32 63 32 25 48 25 73 0z m-900 -326 c204
-60 328 -216 361 -450 17 -126 64 -114 -436 -114 -481 0 -445 6 -445 -69 0
-51 25 -142 56 -203 56 -110 185 -198 318 -217 136 -19 267 27 367 129 32 33
67 60 77 60 26 0 42 -20 42 -53 0 -24 -16 -45 -77 -106 -123 -121 -267 -181
-436 -183 -163 -2 -306 55 -434 176 -99 93 -137 160 -158 281 -44 255 7 455
156 607 116 118 268 172 459 163 53 -3 120 -12 150 -21z m-1036 -13 c4 -5 8
-264 9 -575 3 -441 1 -568 -9 -576 -7 -6 -58 -10 -124 -8 l-113 3 1 569 c0
313 4 572 9 577 12 11 50 16 140 18 45 0 84 -3 87 -8z"/>
<path d="M4963 7530 c-78 -39 -147 -114 -200 -217 -41 -78 -125 -268 -458
-1038 -98 -225 -273 -630 -390 -900 -116 -269 -218 -508 -225 -530 -19 -57
-17 -148 4 -179 38 -59 145 -20 278 101 159 144 328 239 688 387 102 42 239
103 305 136 520 257 805 633 806 1064 0 179 -36 307 -192 669 -113 263 -161
350 -234 423 -76 76 -142 106 -240 112 -74 3 -85 1 -142 -28z m189 -292 c36
-39 245 -498 293 -643 99 -297 46 -512 -185 -744 -191 -193 -435 -333 -827
-476 -163 -59 -202 -66 -204 -37 -3 40 3 61 41 142 22 47 141 321 264 610 312
729 491 1131 516 1158 31 32 67 28 102 -10z"/>
<path d="M2393 2806 c-152 -309 -163 -344 -118 -389 49 -48 116 -60 304 -54
178 6 224 14 229 40 3 16 -265 677 -275 677 -2 0 -65 -124 -140 -274z"/>
<path d="M4528 3273 c-20 -2 -42 -11 -50 -20 -18 -23 -19 -1346 -1 -1364 9 -9
60 -12 175 -12 251 1 367 40 488 162 72 72 124 163 160 276 27 87 39 330 21
428 -55 291 -207 459 -461 510 -79 16 -270 28 -332 20z"/>
<path d="M6875 2857 c-93 -31 -144 -75 -189 -165 -24 -48 -66 -173 -66 -198 0
-12 52 -14 315 -14 l315 0 0 30 c0 91 -58 240 -111 285 -76 63 -183 88 -264
62z"/>
</g>
</svg>
