<svg xmlns="http://www.w3.org/2000/svg" width="760" height="760" viewBox="0 0 760 760"><svg x="100" y="85" width="560" height="530" viewBox="0 0 1564.000000 1480.000000" overflow="visible"><ns0:g xmlns:ns0="http://www.w3.org/2000/svg" transform="translate(-148.000000,1564.000000) scale(0.050000,-0.050000)" fill="#8FA48D" stroke="none">
<ns0:path d="M18160 31240 c0 -39 -13 -40 -360 -40 -347 0 -360 -1 -360 -40 0 -37 -13 -40 -160 -40 -147 0 -160 -3 -160 -40 0 -37 -13 -40 -160 -40 -147 0 -160 -3 -160 -40 0 -36 -13 -40 -120 -40 -107 0 -120 -4 -120 -40 0 -33 -13 -40 -80 -40 -67 0 -80 -7 -80 -40 0 -36 -13 -40 -120 -40 -107 0 -120 -4 -120 -40 0 -36 -13 -40 -120 -40 -107 0 -120 -4 -120 -40 0 -33 -13 -40 -80 -40 -67 0 -80 -7 -80 -40 0 -33 -13 -40 -80 -40 -67 0 -80 -7 -80 -40 0 -33 -13 -40 -80 -40 -67 0 -80 -7 -80 -40 0 -33 -13 -40 -80 -40 -67 0 -80 -7 -80 -40 0 -27 -13 -40 -40 -40 -27 0 -40 -13 -40 -40 0 -33 -13 -40 -80 -40 -67 0 -80 -7 -80 -40 0 -27 -13 -40 -40 -40 -27 0 -40 -13 -40 -40 0 -33 -13 -40 -80 -40 -67 0 -80 -7 -80 -40 0 -27 -13 -40 -40 -40 -27 0 -40 -13 -40 -40 0 -27 -13 -40 -40 -40 -27 0 -40 -13 -40 -40 0 -27 -13 -40 -40 -40 -27 0 -40 -13 -40 -40 0 -33 -13 -40 -80 -40 -67 0 -80 -7 -80 -40 0 -27 -13 -40 -40 -40 -27 0 -40 -13 -40 -40 0 -27 -13 -40 -40 -40 -27 0 -40 -13 -40 -40 0 -27 -13 -40 -40 -40 -27 0 -40 -13 -40 -40 0 -27 -13 -40 -40 -40 -27 0 -40 -13 -40 -40 0 -27 -13 -40 -40 -40 -27 0 -40 -13 -40 -40 0 -27 -13 -40 -40 -40 -27 0 -40 -13 -40 -40 0 -27 -13 -40 -40 -40 -27 0 -40 -13 -40 -40 0 -27 -13 -40 -40 -40 -33 0 -40 -13 -40 -80 0 -67 -7 -80 -40 -80 -27 0 -40 -13 -40 -40 0 -27 -13 -40 -40 -40 -27 0 -40 -13 -40 -40 0 -27 -13 -40 -40 -40 -33 0 -40 -13 -40 -80 0 -67 -7 -80 -40 -80 -27 0 -40 -13 -40 -40 0 -27 -13 -40 -40 -40 -33 0 -40 -13 -40 -80 0 -67 -7 -80 -40 -80 -27 0 -40 -13 -40 -40 0 -27 -13 -40 -40 -40 -33 0 -40 -13 -40 -80 0 -67 -7 -80 -40 -80 -27 0 -40 -13 -40 -40 0 -27 -13 -40 -40 -40 -33 0 -40 -13 -40 -80 0 -67 -7 -80 -40 -80 -33 0 -40 -13 -40 -80 0 -67 -7 -80 -40 -80 -33 0 -40 -13 -40 -80 0 -67 -7 -80 -40 -80 -33 0 -40 -13 -40 -80 0 -67 -7 -80 -40 -80 -33 0 -40 -13 -40 -80 0 -67 -7 -80 -40 -80 -33 0 -40 -13 -40 -80 0 -67 -7 -80 -40 -80 -33 0 -40 -13 -40 -80 0 -67 -7 -80 -40 -80 -36 0 -40 -13 -40 -120 0 -107 -4 -120 -40 -120 -33 0 -40 -13 -40 -80 0 -67 -7 -80 -40 -80 -36 0 -40 -13 -40 -120 0 -107 -4 -120 -40 -120 -33 0 -40 -13 -40 -80 0 -67 -7 -80 -40 -80 -33 0 -40 -13 -40 -80 0 -67 -7 -80 -40 -80 -33 0 -40 -13 -40 -80 0 -67 -7 -80 -40 -80 -33 0 -40 -13 -40 -80 0 -67 -7 -80 -40 -80 -33 0 -40 -13 -40 -80 0 -67 -7 -80 -40 -80 -33 0 -40 -13 -40 -80 0 -67 -7 -80 -40 -80 -33 0 -40 -13 -40 -80 0 -67 -7 -80 -40 -80 -33 0 -40 -13 -40 -80 0 -67 -7 -80 -40 -80 -36 0 -40 -13 -40 -120 0 -107 -4 -120 -40 -120 -33 0 -40 -13 -40 -80 0 -67 -7 -80 -40 -80 -33 0 -40 -13 -40 -80 0 -67 -7 -80 -40 -80 -33 0 -40 -13 -40 -80 0 -67 -7 -80 -40 -80 -33 0 -40 -13 -40 -80 0 -67 -7 -80 -40 -80 -36 0 -40 -13 -40 -120 0 -107 -4 -120 -40 -120 -36 0 -40 -13 -40 -120 0 -107 -4 -120 -40 -120 -33 0 -40 -13 -40 -80 0 -67 -7 -80 -40 -80 -33 0 -40 -13 -40 -80 0 -67 -7 -80 -40 -80 -33 0 -40 -13 -40 -80 0 -67 -7 -80 -40 -80 -33 0 -40 -13 -40 -80 0 -67 -7 -80 -40 -80 -33 0 -40 -13 -40 -80 0 -67 -7 -80 -40 -80 -33 0 -40 -13 -40 -80 0 -67 -7 -80 -40 -80 -36 0 -40 -13 -40 -120 0 -107 -4 -120 -40 -120 -33 0 -40 -13 -40 -80 0 -67 -7 -80 -40 -80 -33 0 -40 -13 -40 -80 0 -67 -7 -80 -40 -80 -33 0 -40 -13 -40 -80 0 -67 -7 -80 -40 -80 -33 0 -40 -13 -40 -80 0 -67 -7 -80 -40 -80 -33 0 -40 -13 -40 -80 0 -67 -7 -80 -40 -80 -36 0 -40 -13 -40 -120 0 -107 -4 -120 -40 -120 -33 0 -40 -13 -40 -80 0 -67 -7 -80 -40 -80 -33 0 -40 -13 -40 -80 0 -67 -7 -80 -40 -80 -33 0 -40 -13 -40 -80 0 -67 -7 -80 -40 -80 -33 0 -40 -13 -40 -80 0 -67 -7 -80 -40 -80 -36 0 -40 -13 -40 -120 0 -107 -4 -120 -40 -120 -33 0 -40 -13 -40 -80 0 -67 -7 -80 -40 -80 -33 0 -40 -13 -40 -80 0 -67 -7 -80 -40 -80 -33 0 -40 -13 -40 -80 0 -67 -7 -80 -40 -80 -36 0 -40 -13 -40 -120 0 -107 -4 -120 -40 -120 -27 0 -40 -13 -40 -40 0 -27 -13 -40 -40 -40 -36 0 -40 -13 -40 -120 0 -107 -4 -120 -40 -120 -33 0 -40 -13 -40 -80 0 -67 -7 -80 -40 -80 -33 0 -40 -13 -40 -80 0 -67 -7 -80 -40 -80 -33 0 -40 -13 -40 -80 0 -67 -7 -80 -40 -80 -36 0 -40 -13 -40 -120 0 -107 -4 -120 -40 -120 -33 0 -40 -13 -40 -80 0 -67 -7 -80 -40 -80 -33 0 -40 -13 -40 -80 0 -67 -7 -80 -40 -80 -36 0 -40 -13 -40 -120 0 -107 -4 -120 -40 -120 -33 0 -40 -13 -40 -80 0 -67 -7 -80 -40 -80 -33 0 -40 -13 -40 -80 0 -67 -7 -80 -40 -80 -33 0 -40 -13 -40 -80 0 -67 -7 -80 -40 -80 -33 0 -40 -13 -40 -80 0 -67 -7 -80 -40 -80 -33 0 -40 -13 -40 -80 0 -67 -7 -80 -40 -80 -33 0 -40 -13 -40 -80 0 -67 -7 -80 -40 -80 -36 0 -40 -13 -40 -120 0 -107 -4 -120 -40 -120 -33 0 -40 -13 -40 -80 0 -67 -7 -80 -40 -80 -33 0 -40 -13 -40 -80 0 -67 -7 -80 -40 -80 -33 0 -40 -13 -40 -80 0 -67 -7 -80 -40 -80 -33 0 -40 -13 -40 -80 0 -67 -7 -80 -40 -80 -33 0 -40 -13 -40 -80 0 -67 -7 -80 -40 -80 -33 0 -40 -13 -40 -80 0 -67 -7 -80 -40 -80 -36 0 -40 -13 -40 -120 0 -107 -4 -120 -40 -120 -33 0 -40 -13 -40 -80 0 -67 -7 -80 -40 -80 -36 0 -40 -13 -40 -120 0 -107 -4 -120 -40 -120 -33 0 -40 -13 -40 -80 0 -67 -7 -80 -40 -80 -33 0 -40 -13 -40 -80 0 -67 -7 -80 -40 -80 -33 0 -40 -13 -40 -80 0 -67 -7 -80 -40 -80 -36 0 -40 -13 -40 -120 0 -107 -4 -120 -40 -120 -33 0 -40 -13 -40 -80 0 -67 -7 -80 -40 -80 -33 0 -40 -13 -40 -80 0 -67 -7 -80 -40 -80 -33 0 -40 -13 -40 -80 0 -67 -7 -80 -40 -80 -33 0 -40 -13 -40 -80 0 -67 -7 -80 -40 -80 -36 0 -40 -13 -40 -120 0 -107 -4 -120 -40 -120 -33 0 -40 -13 -40 -80 0 -67 -7 -80 -40 -80 -33 0 -40 -13 -40 -80 0 -67 -7 -80 -40 -80 -33 0 -40 -13 -40 -80 0 -67 -7 -80 -40 -80 -33 0 -40 -13 -40 -80 0 -67 -7 -80 -40 -80 -33 0 -40 -13 -40 -80 0 -67 -7 -80 -40 -80 -33 0 -40 -13 -40 -80 0 -67 -7 -80 -40 -80 -36 0 -40 -13 -40 -120 0 -107 -4 -120 -40 -120 -33 0 -40 -13 -40 -80 0 -67 -7 -80 -40 -80 -36 0 -40 -13 -40 -120 0 -107 -4 -120 -40 -120 -33 0 -40 -13 -40 -80 0 -67 -7 -80 -40 -80 -33 0 -40 -13 -40 -80 0 -67 -7 -80 -40 -80 -36 0 -40 -13 -40 -120 0 -107 -4 -120 -40 -120 -33 0 -40 -13 -40 -80 0 -67 -7 -80 -40 -80 -33 0 -40 -13 -40 -80 0 -67 -7 -80 -40 -80 -33 0 -40 -13 -40 -80 0 -67 -7 -80 -40 -80 -36 0 -40 -13 -40 -120 0 -107 -4 -120 -40 -120 -27 0 -40 -13 -40 -40 0 -27 -13 -40 -40 -40 -36 0 -40 -13 -40 -120 0 -107 -4 -120 -40 -120 -33 0 -40 -13 -40 -80 0 -67 -7 -80 -40 -80 -33 0 -40 -13 -40 -80 0 -67 -7 -80 -40 -80 -33 0 -40 -13 -40 -80 0 -67 -7 -80 -40 -80 -36 0 -40 -13 -40 -120 0 -107 -4 -120 -40 -120 -33 0 -40 -13 -40 -80 0 -67 -7 -80 -40 -80 -36 0 -40 -13 -40 -120 0 -107 -4 -120 -40 -120 -33 0 -40 -13 -40 -80 0 -67 -7 -80 -40 -80 -33 0 -40 -13 -40 -80 0 -67 -7 -80 -40 -80 -33 0 -40 -13 -40 -80 0 -67 -7 -80 -40 -80 -36 0 -40 -13 -40 -120 0 -107 -4 -120 -40 -120 -33 0 -40 -13 -40 -80 0 -67 -7 -80 -40 -80 -33 0 -40 -13 -40 -80 0 -67 -7 -80 -40 -80 -33 0 -40 -13 -40 -80 0 -67 -7 -80 -40 -80 -33 0 -40 -13 -40 -80 0 -67 -7 -80 -40 -80 -33 0 -40 -13 -40 -80 0 -67 -7 -80 -40 -80 -36 0 -40 -13 -40 -120 0 -107 -4 -120 -40 -120 -33 0 -40 -13 -40 -80 0 -67 -7 -80 -40 -80 -33 0 -40 -13 -40 -80 0 -67 -7 -80 -40 -80 -33 0 -40 -13 -40 -80 0 -67 -7 -80 -40 -80 -33 0 -40 -13 -40 -80 0 -67 -7 -80 -40 -80 -33 0 -40 -13 -40 -80 0 -67 -7 -80 -40 -80 -36 0 -40 -13 -40 -120 0 -107 -4 -120 -40 -120 -33 0 -40 -13 -40 -80 0 -67 -7 -80 -40 -80 -33 0 -40 -13 -40 -80 0 -67 -7 -80 -40 -80 -33 0 -40 -13 -40 -80 0 -67 -7 -80 -40 -80 -36 0 -40 -13 -40 -120 0 -107 -4 -120 -40 -120 -36 0 -40 -13 -40 -120 0 -107 -4 -120 -40 -120 -39 0 -40 -13 -40 -680 0 -667 1 -680 40 -680 37 0 40 -13 40 -160 0 -147 3 -160 40 -160 36 0 40 -13 40 -120 0 -107 4 -120 40 -120 33 0 40 -13 40 -80 0 -67 7 -80 40 -80 33 0 40 -13 40 -80 0 -67 7 -80 40 -80 33 0 40 -13 40 -80 0 -67 7 -80 40 -80 33 0 40 -13 40 -80 0 -67 7 -80 40 -80 27 0 40 -13 40 -40 0 -27 13 -40 40 -40 27 0 40 -13 40 -40 0 -27 13 -40 40 -40 27 0 40 -13 40 -40 0 -27 13 -40 40 -40 33 0 40 -13 40 -80 0 -67 7 -80 40 -80 27 0 40 -13 40 -40 0 -27 13 -40 40 -40 27 0 40 -13 40 -40 0 -27 13 -40 40 -40 27 0 40 -13 40 -40 0 -27 13 -40 40 -40 27 0 40 -13 40 -40 0 -33 13 -40 80 -40 67 0 80 -7 80 -40 0 -27 13 -40 40 -40 27 0 40 -13 40 -40 0 -27 13 -40 40 -40 27 0 40 -13 40 -40 0 -27 13 -40 40 -40 27 0 40 -13 40 -40 0 -33 13 -40 80 -40 67 0 80 -7 80 -40 0 -33 13 -40 80 -40 67 0 80 -7 80 -40 0 -36 13 -40 120 -40 107 0 120 -4 120 -40 0 -36 13 -40 120 -40 107 0 120 -4 120 -40 0 -37 13 -40 160 -40 147 0 160 -3 160 -40 0 -37 13 -40 200 -40 187 0 200 -3 200 -40 0 -39 13 -40 400 -40 387 0 400 1 400 40 0 38 13 40 240 40 227 0 240 2 240 40 0 37 13 40 200 40 187 0 200 3 200 40 0 36 13 40 120 40 107 0 120 4 120 40 0 36 13 40 120 40 107 0 120 4 120 40 0 33 13 40 80 40 67 0 80 7 80 40 0 33 13 40 80 40 67 0 80 7 80 40 0 33 13 40 80 40 67 0 80 7 80 40 0 33 13 40 80 40 67 0 80 7 80 40 0 33 13 40 80 40 67 0 80 7 80 40 0 33 13 40 80 40 67 0 80 7 80 40 0 33 13 40 80 40 67 0 80 7 80 40 0 27 13 40 40 40 27 0 40 13 40 40 0 33 13 40 80 40 67 0 80 7 80 40 0 27 13 40 40 40 27 0 40 13 40 40 0 33 13 40 80 40 67 0 80 7 80 40 0 27 13 40 40 40 27 0 40 13 40 40 0 27 13 40 40 40 27 0 40 13 40 40 0 33 13 40 80 40 67 0 80 7 80 40 0 27 13 40 40 40 27 0 40 13 40 40 0 33 13 40 80 40 67 0 80 7 80 40 0 27 13 40 40 40 27 0 40 13 40 40 0 27 13 40 40 40 27 0 40 13 40 40 0 27 13 40 40 40 27 0 40 13 40 40 0 27 13 40 40 40 27 0 40 13 40 40 0 27 13 40 40 40 27 0 40 13 40 40 0 33 13 40 80 40 67 0 80 7 80 40 0 27 13 40 40 40 27 0 40 13 40 40 0 27 13 40 40 40 27 0 40 13 40 40 0 27 13 40 40 40 27 0 40 13 40 40 0 27 13 40 40 40 27 0 40 13 40 40 0 27 13 40 40 40 27 0 40 13 40 40 0 27 13 40 40 40 27 0 40 13 40 40 0 27 13 40 40 40 27 0 40 13 40 40 0 27 13 40 40 40 27 0 40 13 40 40 0 27 13 40 40 40 27 0 40 13 40 40 0 27 13 40 40 40 27 0 40 13 40 40 0 27 13 40 40 40 27 0 40 13 40 40 0 27 13 40 40 40 27 0 40 13 40 40 0 27 13 40 40 40 27 0 40 13 40 40 0 27 13 40 40 40 27 0 40 13 40 40 0 27 13 40 40 40 27 0 40 13 40 40 0 33 13 40 80 40 l80 0 0 80 0 80 80 0 c67 0 80 7 80 40 0 27 13 40 40 40 27 0 40 13 40 40 0 27 13 40 40 40 27 0 40 13 40 40 0 27 13 40 40 40 27 0 40 13 40 40 0 27 13 40 40 40 27 0 40 13 40 40 0 27 13 40 40 40 27 0 40 13 40 40 0 27 13 40 40 40 27 0 40 13 40 40 0 27 13 40 40 40 27 0 40 13 40 40 0 27 13 40 40 40 27 0 40 13 40 40 0 27 13 40 40 40 27 0 40 13 40 40 0 27 13 40 40 40 27 0 40 13 40 40 0 33 13 40 80 40 67 0 80 7 80 40 0 27 13 40 40 40 27 0 40 13 40 40 0 27 13 40 40 40 27 0 40 13 40 40 0 27 13 40 40 40 27 0 40 13 40 40 0 33 13 40 80 40 67 0 80 7 80 40 0 27 13 40 40 40 27 0 40 13 40 40 0 27 13 40 40 40 27 0 40 13 40 40 0 33 13 40 80 40 67 0 80 7 80 40 0 27 13 40 40 40 27 0 40 13 40 40 0 33 13 40 80 40 67 0 80 7 80 40 0 33 13 40 80 40 67 0 80 7 80 40 0 27 13 40 40 40 27 0 40 13 40 40 0 33 13 40 80 40 67 0 80 7 80 40 0 33 13 40 80 40 67 0 80 7 80 40 0 33 13 40 80 40 67 0 80 7 80 40 0 33 13 40 80 40 67 0 80 7 80 40 0 33 13 40 80 40 67 0 80 7 80 40 0 33 13 40 80 40 67 0 80 7 80 40 0 36 13 40 120 40 107 0 120 4 120 40 0 36 13 40 120 40 107 0 120 4 120 40 0 37 13 40 160 40 147 0 160 3 160 40 0 36 13 40 120 40 107 0 120 4 120 40 0 37 13 40 160 40 147 0 160 3 160 40 0 38 13 40 280 40 267 0 280 2 280 40 0 39 13 40 480 40 467 0 480 1 480 40 0 38 13 40 320 40 307 0 320 -2 320 -40 0 -38 13 -40 320 -40 307 0 320 -2 320 -40 0 -37 13 -40 200 -40 187 0 200 -3 200 -40 0 -37 13 -40 200 -40 187 0 200 -3 200 -40 0 -37 13 -40 160 -40 147 0 160 -3 160 -40 0 -36 13 -40 120 -40 107 0 120 -4 120 -40 0 -36 13 -40 120 -40 107 0 120 -4 120 -40 0 -33 13 -40 80 -40 67 0 80 -7 80 -40 0 -36 13 -40 120 -40 107 0 120 -4 120 -40 0 -33 13 -40 80 -40 67 0 80 -7 80 -40 0 -33 13 -40 80 -40 67 0 80 -7 80 -40 0 -27 13 -40 40 -40 27 0 40 -13 40 -40 0 -33 13 -40 80 -40 67 0 80 -7 80 -40 0 -33 13 -40 80 -40 67 0 80 -7 80 -40 0 -33 13 -40 80 -40 67 0 80 -7 80 -40 0 -27 13 -40 40 -40 27 0 40 -13 40 -40 0 -33 13 -40 80 -40 67 0 80 -7 80 -40 0 -27 13 -40 40 -40 27 0 40 -13 40 -40 0 -33 13 -40 80 -40 67 0 80 -7 80 -40 0 -27 13 -40 40 -40 27 0 40 -13 40 -40 0 -33 13 -40 80 -40 67 0 80 -7 80 -40 0 -27 13 -40 40 -40 27 0 40 -13 40 -40 0 -33 13 -40 80 -40 67 0 80 -7 80 -40 0 -27 13 -40 40 -40 27 0 40 -13 40 -40 0 -27 13 -40 40 -40 27 0 40 -13 40 -40 0 -27 13 -40 40 -40 27 0 40 -13 40 -40 0 -33 13 -40 80 -40 67 0 80 -7 80 -40 0 -27 13 -40 40 -40 27 0 40 -13 40 -40 0 -27 13 -40 40 -40 27 0 40 -13 40 -40 0 -27 13 -40 40 -40 27 0 40 -13 40 -40 0 -27 13 -40 40 -40 27 0 40 -13 40 -40 0 -27 13 -40 40 -40 27 0 40 -13 40 -40 0 -27 13 -40 40 -40 27 0 40 -13 40 -40 0 -27 13 -40 40 -40 27 0 40 -13 40 -40 0 -27 13 -40 40 -40 27 0 40 -13 40 -40 0 -27 13 -40 40 -40 27 0 40 -13 40 -40 0 -33 13 -40 80 -40 67 0 80 -7 80 -40 0 -27 13 -40 40 -40 27 0 40 -13 40 -40 0 -27 13 -40 40 -40 27 0 40 -13 40 -40 0 -27 13 -40 40 -40 27 0 40 -13 40 -40 0 -27 13 -40 40 -40 27 0 40 -13 40 -40 0 -27 13 -40 40 -40 27 0 40 -13 40 -40 0 -27 13 -40 40 -40 27 0 40 -13 40 -40 0 -27 13 -40 40 -40 27 0 40 -13 40 -40 0 -27 13 -40 40 -40 27 0 40 -13 40 -40 0 -27 13 -40 40 -40 33 0 40 -13 40 -80 0 -67 7 -80 40 -80 27 0 40 -13 40 -40 0 -27 13 -40 40 -40 27 0 40 -13 40 -40 0 -27 13 -40 40 -40 27 0 40 -13 40 -40 0 -27 13 -40 40 -40 27 0 40 -13 40 -40 0 -27 13 -40 40 -40 27 0 40 -13 40 -40 0 -33 13 -40 80 -40 l80 0 0 -80 c0 -67 7 -80 40 -80 27 0 40 -13 40 -40 0 -27 13 -40 40 -40 27 0 40 -13 40 -40 0 -27 13 -40 40 -40 27 0 40 -13 40 -40 0 -27 13 -40 40 -40 27 0 40 -13 40 -40 0 -27 13 -40 40 -40 27 0 40 -13 40 -40 0 -27 13 -40 40 -40 27 0 40 -13 40 -40 0 -27 13 -40 40 -40 27 0 40 -13 40 -40 0 -27 13 -40 40 -40 27 0 40 -13 40 -40 0 -33 13 -40 80 -40 67 0 80 -7 80 -40 0 -27 13 -40 40 -40 27 0 40 -13 40 -40 0 -27 13 -40 40 -40 27 0 40 -13 40 -40 0 -27 13 -40 40 -40 27 0 40 -13 40 -40 0 -33 13 -40 80 -40 67 0 80 -7 80 -40 0 -27 13 -40 40 -40 27 0 40 -13 40 -40 0 -27 13 -40 40 -40 27 0 40 -13 40 -40 0 -33 13 -40 80 -40 67 0 80 -7 80 -40 0 -33 13 -40 80 -40 67 0 80 -7 80 -40 0 -27 13 -40 40 -40 27 0 40 -13 40 -40 0 -33 13 -40 80 -40 67 0 80 -7 80 -40 0 -33 13 -40 80 -40 67 0 80 -7 80 -40 0 -36 13 -40 120 -40 107 0 120 -4 120 -40 0 -33 13 -40 80 -40 67 0 80 -7 80 -40 0 -36 13 -40 120 -40 107 0 120 -4 120 -40 0 -37 13 -40 160 -40 147 0 160 -3 160 -40 0 -37 13 -40 160 -40 147 0 160 -3 160 -40 0 -39 13 -40 720 -40 707 0 720 1 720 40 0 37 13 40 160 40 147 0 160 3 160 40 0 37 13 40 200 40 187 0 200 3 200 40 0 36 13 40 120 40 107 0 120 4 120 40 0 33 13 40 80 40 67 0 80 7 80 40 0 33 13 40 80 40 67 0 80 7 80 40 0 33 13 40 80 40 67 0 80 7 80 40 0 33 13 40 80 40 67 0 80 7 80 40 0 27 13 40 40 40 27 0 40 13 40 40 0 33 13 40 80 40 67 0 80 7 80 40 0 27 13 40 40 40 27 0 40 13 40 40 0 27 13 40 40 40 27 0 40 13 40 40 0 27 13 40 40 40 27 0 40 13 40 40 0 27 13 40 40 40 27 0 40 13 40 40 0 27 13 40 40 40 27 0 40 13 40 40 0 27 13 40 40 40 27 0 40 13 40 40 0 27 13 40 40 40 27 0 40 13 40 40 0 27 13 40 40 40 27 0 40 13 40 40 0 27 13 40 40 40 27 0 40 13 40 40 0 27 13 40 40 40 33 0 40 13 40 80 0 67 7 80 40 80 33 0 40 13 40 80 0 67 7 80 40 80 27 0 40 13 40 40 0 27 13 40 40 40 33 0 40 13 40 80 0 67 7 80 40 80 33 0 40 13 40 80 0 67 7 80 40 80 36 0 40 13 40 120 0 107 4 120 40 120 36 0 40 13 40 120 0 107 4 120 40 120 36 0 40 13 40 120 0 107 4 120 40 120 38 0 40 13 40 280 0 267 2 280 40 280 39 0 40 13 40 400 0 387 -1 400 -40 400 -37 0 -40 13 -40 160 0 147 -3 160 -40 160 -37 0 -40 13 -40 160 0 147 -3 160 -40 160 -36 0 -40 13 -40 120 0 107 -4 120 -40 120 -33 0 -40 13 -40 80 0 67 -7 80 -40 80 -33 0 -40 13 -40 80 0 67 -7 80 -40 80 -36 0 -40 13 -40 120 0 107 -4 120 -40 120 -27 0 -40 13 -40 40 0 27 -13 40 -40 40 -36 0 -40 13 -40 120 0 107 -4 120 -40 120 -33 0 -40 13 -40 80 0 67 -7 80 -40 80 -33 0 -40 13 -40 80 0 67 -7 80 -40 80 -33 0 -40 13 -40 80 0 67 -7 80 -40 80 -33 0 -40 13 -40 80 0 67 -7 80 -40 80 -27 0 -40 13 -40 40 0 27 -13 40 -40 40 -36 0 -40 13 -40 120 0 107 -4 120 -40 120 -33 0 -40 13 -40 80 0 67 -7 80 -40 80 -33 0 -40 13 -40 80 0 67 -7 80 -40 80 -33 0 -40 13 -40 80 0 67 -7 80 -40 80 -33 0 -40 13 -40 80 0 67 -7 80 -40 80 -33 0 -40 13 -40 80 0 67 -7 80 -40 80 -33 0 -40 13 -40 80 0 67 -7 80 -40 80 -36 0 -40 13 -40 120 0 107 -4 120 -40 120 -33 0 -40 13 -40 80 0 67 -7 80 -40 80 -33 0 -40 13 -40 80 0 67 -7 80 -40 80 -33 0 -40 13 -40 80 0 67 -7 80 -40 80 -33 0 -40 13 -40 80 0 67 -7 80 -40 80 -33 0 -40 13 -40 80 0 67 -7 80 -40 80 -33 0 -40 13 -40 80 0 67 -7 80 -40 80 -33 0 -40 13 -40 80 0 67 -7 80 -40 80 -33 0 -40 13 -40 80 0 67 -7 80 -40 80 -33 0 -40 13 -40 80 0 67 -7 80 -40 80 -36 0 -40 13 -40 120 0 107 -4 120 -40 120 -33 0 -40 13 -40 80 0 67 -7 80 -40 80 -36 0 -40 13 -40 120 0 107 -4 120 -40 120 -33 0 -40 13 -40 80 0 67 -7 80 -40 80 -33 0 -40 13 -40 80 0 67 -7 80 -40 80 -33 0 -40 13 -40 80 0 67 -7 80 -40 80 -33 0 -40 13 -40 80 0 67 -7 80 -40 80 -33 0 -40 13 -40 80 0 67 -7 80 -40 80 -33 0 -40 13 -40 80 0 67 -7 80 -40 80 -36 0 -40 13 -40 120 0 107 -4 120 -40 120 -33 0 -40 13 -40 80 0 67 -7 80 -40 80 -33 0 -40 13 -40 80 0 67 -7 80 -40 80 -36 0 -40 13 -40 120 0 107 -4 120 -40 120 -33 0 -40 13 -40 80 0 67 -7 80 -40 80 -33 0 -40 13 -40 80 0 67 -7 80 -40 80 -33 0 -40 13 -40 80 0 67 -7 80 -40 80 -36 0 -40 13 -40 120 0 107 -4 120 -40 120 -33 0 -40 13 -40 80 0 67 -7 80 -40 80 -33 0 -40 13 -40 80 0 67 -7 80 -40 80 -33 0 -40 13 -40 80 0 67 -7 80 -40 80 -33 0 -40 13 -40 80 0 67 -7 80 -40 80 -33 0 -40 13 -40 80 0 67 -7 80 -40 80 -36 0 -40 13 -40 120 0 107 -4 120 -40 120 -33 0 -40 13 -40 80 0 67 -7 80 -40 80 -33 0 -40 13 -40 80 0 67 -7 80 -40 80 -33 0 -40 13 -40 80 0 67 -7 80 -40 80 -36 0 -40 13 -40 120 0 107 -4 120 -40 120 -27 0 -40 13 -40 40 0 27 -13 40 -40 40 -36 0 -40 13 -40 120 0 107 -4 120 -40 120 -33 0 -40 13 -40 80 0 67 -7 80 -40 80 -33 0 -40 13 -40 80 0 67 -7 80 -40 80 -33 0 -40 13 -40 80 0 67 -7 80 -40 80 -33 0 -40 13 -40 80 0 67 -7 80 -40 80 -36 0 -40 13 -40 120 0 107 -4 120 -40 120 -33 0 -40 13 -40 80 0 67 -7 80 -40 80 -33 0 -40 13 -40 80 0 67 -7 80 -40 80 -33 0 -40 13 -40 80 0 67 -7 80 -40 80 -33 0 -40 13 -40 80 0 67 -7 80 -40 80 -36 0 -40 13 -40 120 0 107 -4 120 -40 120 -33 0 -40 13 -40 80 0 67 -7 80 -40 80 -33 0 -40 13 -40 80 0 67 -7 80 -40 80 -33 0 -40 13 -40 80 0 67 -7 80 -40 80 -33 0 -40 13 -40 80 0 67 -7 80 -40 80 -33 0 -40 13 -40 80 0 67 -7 80 -40 80 -33 0 -40 13 -40 80 0 67 -7 80 -40 80 -33 0 -40 13 -40 80 0 67 -7 80 -40 80 -33 0 -40 13 -40 80 0 67 -7 80 -40 80 -36 0 -40 13 -40 120 0 107 -4 120 -40 120 -33 0 -40 13 -40 80 0 67 -7 80 -40 80 -33 0 -40 13 -40 80 0 67 -7 80 -40 80 -33 0 -40 13 -40 80 0 67 -7 80 -40 80 -33 0 -40 13 -40 80 0 67 -7 80 -40 80 -33 0 -40 13 -40 80 0 67 -7 80 -40 80 -33 0 -40 13 -40 80 0 67 -7 80 -40 80 -33 0 -40 13 -40 80 0 67 -7 80 -40 80 -36 0 -40 13 -40 120 0 107 -4 120 -40 120 -33 0 -40 13 -40 80 0 67 -7 80 -40 80 -27 0 -40 13 -40 40 0 27 -13 40 -40 40 -33 0 -40 13 -40 80 0 67 -7 80 -40 80 -33 0 -40 13 -40 80 0 67 -7 80 -40 80 -33 0 -40 13 -40 80 0 67 -7 80 -40 80 -36 0 -40 13 -40 120 0 107 -4 120 -40 120 -33 0 -40 13 -40 80 0 67 -7 80 -40 80 -33 0 -40 13 -40 80 0 67 -7 80 -40 80 -33 0 -40 13 -40 80 0 67 -7 80 -40 80 -33 0 -40 13 -40 80 0 67 -7 80 -40 80 -33 0 -40 13 -40 80 0 67 -7 80 -40 80 -36 0 -40 13 -40 120 0 107 -4 120 -40 120 -33 0 -40 13 -40 80 0 67 -7 80 -40 80 -33 0 -40 13 -40 80 0 67 -7 80 -40 80 -33 0 -40 13 -40 80 0 67 -7 80 -40 80 -33 0 -40 13 -40 80 0 67 -7 80 -40 80 -33 0 -40 13 -40 80 0 67 -7 80 -40 80 -33 0 -40 13 -40 80 0 67 -7 80 -40 80 -36 0 -40 13 -40 120 0 107 -4 120 -40 120 -33 0 -40 13 -40 80 0 67 -7 80 -40 80 -33 0 -40 13 -40 80 0 67 -7 80 -40 80 -33 0 -40 13 -40 80 0 67 -7 80 -40 80 -33 0 -40 13 -40 80 0 67 -7 80 -40 80 -33 0 -40 13 -40 80 0 67 -7 80 -40 80 -33 0 -40 13 -40 80 0 67 -7 80 -40 80 -36 0 -40 13 -40 120 0 107 -4 120 -40 120 -33 0 -40 13 -40 80 0 67 -7 80 -40 80 -33 0 -40 13 -40 80 0 67 -7 80 -40 80 -33 0 -40 13 -40 80 0 67 -7 80 -40 80 -36 0 -40 13 -40 120 0 107 -4 120 -40 120 -33 0 -40 13 -40 80 0 67 -7 80 -40 80 -33 0 -40 13 -40 80 0 67 -7 80 -40 80 -33 0 -40 13 -40 80 0 67 -7 80 -40 80 -36 0 -40 13 -40 120 0 107 -4 120 -40 120 -33 0 -40 13 -40 80 0 67 -7 80 -40 80 -33 0 -40 13 -40 80 0 67 -7 80 -40 80 -33 0 -40 13 -40 80 0 67 -7 80 -40 80 -33 0 -40 13 -40 80 0 67 -7 80 -40 80 -27 0 -40 13 -40 40 0 27 -13 40 -40 40 -33 0 -40 13 -40 80 0 67 -7 80 -40 80 -33 0 -40 13 -40 80 0 67 -7 80 -40 80 -27 0 -40 13 -40 40 0 27 -13 40 -40 40 -33 0 -40 13 -40 80 0 67 -7 80 -40 80 -27 0 -40 13 -40 40 0 27 -13 40 -40 40 -33 0 -40 13 -40 80 0 67 -7 80 -40 80 -27 0 -40 13 -40 40 0 27 -13 40 -40 40 -33 0 -40 13 -40 80 0 67 -7 80 -40 80 -27 0 -40 13 -40 40 0 27 -13 40 -40 40 -27 0 -40 13 -40 40 0 27 -13 40 -40 40 -27 0 -40 13 -40 40 0 27 -13 40 -40 40 -27 0 -40 13 -40 40 0 27 -13 40 -40 40 -27 0 -40 13 -40 40 0 27 -13 40 -40 40 -27 0 -40 13 -40 40 0 27 -13 40 -40 40 -27 0 -40 13 -40 40 0 27 -13 40 -40 40 -27 0 -40 13 -40 40 0 27 -13 40 -40 40 -27 0 -40 13 -40 40 0 27 -13 40 -40 40 -27 0 -40 13 -40 40 0 27 -13 40 -40 40 -27 0 -40 13 -40 40 0 27 -13 40 -40 40 -27 0 -40 13 -40 40 0 27 -13 40 -40 40 -27 0 -40 13 -40 40 0 33 -13 40 -80 40 -67 0 -80 7 -80 40 0 27 -13 40 -40 40 -27 0 -40 13 -40 40 0 27 -13 40 -40 40 -27 0 -40 13 -40 40 0 33 -13 40 -80 40 -67 0 -80 7 -80 40 0 27 -13 40 -40 40 -27 0 -40 13 -40 40 0 33 -13 40 -80 40 -67 0 -80 7 -80 40 0 33 -13 40 -80 40 -67 0 -80 7 -80 40 0 27 -13 40 -40 40 -27 0 -40 13 -40 40 0 36 -13 40 -120 40 -107 0 -120 4 -120 40 0 33 -13 40 -80 40 -67 0 -80 7 -80 40 0 33 -13 40 -80 40 -67 0 -80 7 -80 40 0 36 -13 40 -120 40 -107 0 -120 4 -120 40 0 33 -13 40 -80 40 -67 0 -80 7 -80 40 0 37 -13 40 -160 40 -147 0 -160 3 -160 40 0 37 -13 40 -160 40 -147 0 -160 3 -160 40 0 37 -13 40 -160 40 -147 0 -160 3 -160 40 0 38 -13 40 -280 40 -267 0 -280 2 -280 40 0 39 -13 40 -480 40 -467 0 -480 -1 -480 -40z m800 -8480 c0 -37 13 -40 160 -40 147 0 160 -3 160 -40 0 -33 13 -40 80 -40 67 0 80 -7 80 -40 0 -27 13 -40 40 -40 27 0 40 -13 40 -40 0 -33 13 -40 80 -40 67 0 80 -7 80 -40 0 -27 13 -40 40 -40 27 0 40 -13 40 -40 0 -27 13 -40 40 -40 27 0 40 -13 40 -40 0 -27 13 -40 40 -40 27 0 40 -13 40 -40 0 -27 13 -40 40 -40 27 0 40 -13 40 -40 0 -27 13 -40 40 -40 27 0 40 -13 40 -40 0 -27 13 -40 40 -40 33 0 40 -13 40 -80 0 -67 7 -80 40 -80 33 0 40 -13 40 -80 0 -67 7 -80 40 -80 33 0 40 -13 40 -80 0 -67 7 -80 40 -80 33 0 40 -13 40 -80 0 -67 7 -80 40 -80 33 0 40 -13 40 -80 0 -67 7 -80 40 -80 33 0 40 -13 40 -80 0 -67 7 -80 40 -80 33 0 40 -13 40 -80 0 -67 7 -80 40 -80 36 0 40 -13 40 -120 0 -107 4 -120 40 -120 33 0 40 -13 40 -80 0 -67 7 -80 40 -80 33 0 40 -13 40 -80 0 -67 7 -80 40 -80 33 0 40 -13 40 -80 0 -67 7 -80 40 -80 36 0 40 -13 40 -120 0 -107 4 -120 40 -120 33 0 40 -13 40 -80 0 -67 7 -80 40 -80 33 0 40 -13 40 -80 0 -67 7 -80 40 -80 33 0 40 -13 40 -80 0 -67 7 -80 40 -80 36 0 40 -13 40 -120 0 -107 4 -120 40 -120 33 0 40 -13 40 -80 0 -67 7 -80 40 -80 36 0 40 -13 40 -120 0 -107 4 -120 40 -120 33 0 40 -13 40 -80 0 -67 7 -80 40 -80 36 0 40 -13 40 -120 0 -107 4 -120 40 -120 33 0 40 -13 40 -80 0 -67 7 -80 40 -80 33 0 40 -13 40 -80 0 -67 7 -80 40 -80 36 0 40 -13 40 -120 0 -107 4 -120 40 -120 36 0 40 -13 40 -120 0 -107 4 -120 40 -120 37 0 40 -13 40 -160 0 -147 3 -160 40 -160 37 0 40 -13 40 -200 0 -187 3 -200 40 -200 39 0 40 -13 40 -720 0 -707 -1 -720 -40 -720 -37 0 -40 -13 -40 -200 0 -187 -3 -200 -40 -200 -37 0 -40 -13 -40 -160 0 -147 -3 -160 -40 -160 -36 0 -40 -13 -40 -120 0 -107 -4 -120 -40 -120 -33 0 -40 -13 -40 -80 0 -67 -7 -80 -40 -80 -33 0 -40 -13 -40 -80 0 -67 -7 -80 -40 -80 -33 0 -40 -13 -40 -80 0 -67 -7 -80 -40 -80 -36 0 -40 -13 -40 -120 0 -107 -4 -120 -40 -120 -27 0 -40 -13 -40 -40 0 -27 -13 -40 -40 -40 -33 0 -40 -13 -40 -80 0 -67 -7 -80 -40 -80 -33 0 -40 -13 -40 -80 0 -67 -7 -80 -40 -80 -27 0 -40 -13 -40 -40 0 -27 -13 -40 -40 -40 -33 0 -40 -13 -40 -80 0 -67 -7 -80 -40 -80 -27 0 -40 -13 -40 -40 0 -27 -13 -40 -40 -40 -33 0 -40 -13 -40 -80 0 -67 -7 -80 -40 -80 -27 0 -40 -13 -40 -40 0 -27 -13 -40 -40 -40 -27 0 -40 -13 -40 -40 0 -27 -13 -40 -40 -40 -27 0 -40 -13 -40 -40 0 -27 -13 -40 -40 -40 -27 0 -40 -13 -40 -40 0 -27 -13 -40 -40 -40 -27 0 -40 -13 -40 -40 0 -27 -13 -40 -40 -40 -27 0 -40 -13 -40 -40 0 -27 -13 -40 -40 -40 -27 0 -40 -13 -40 -40 0 -27 -13 -40 -40 -40 -27 0 -40 -13 -40 -40 0 -27 -13 -40 -40 -40 -27 0 -40 -13 -40 -40 0 -27 -13 -40 -40 -40 -27 0 -40 -13 -40 -40 0 -27 -13 -40 -40 -40 -27 0 -40 -13 -40 -40 0 -27 -13 -40 -40 -40 -27 0 -40 -13 -40 -40 0 -27 -13 -40 -40 -40 -27 0 -40 -13 -40 -40 0 -27 -13 -40 -40 -40 -27 0 -40 -13 -40 -40 0 -27 -13 -40 -40 -40 -27 0 -40 -13 -40 -40 0 -27 -13 -40 -40 -40 -27 0 -40 -13 -40 -40 0 -27 -13 -40 -40 -40 -27 0 -40 -13 -40 -40 0 -27 -13 -40 -40 -40 -27 0 -40 -13 -40 -40 0 -33 -13 -40 -80 -40 -67 0 -80 -7 -80 -40 0 -27 -13 -40 -40 -40 -27 0 -40 -13 -40 -40 0 -27 -13 -40 -40 -40 -27 0 -40 -13 -40 -40 0 -33 -13 -40 -80 -40 -67 0 -80 -7 -80 -40 0 -27 -13 -40 -40 -40 -27 0 -40 -13 -40 -40 0 -27 -13 -40 -40 -40 -27 0 -40 -13 -40 -40 0 -33 -13 -40 -80 -40 -67 0 -80 -7 -80 -40 0 -33 -13 -40 -80 -40 -67 0 -80 -7 -80 -40 0 -27 -13 -40 -40 -40 -27 0 -40 -13 -40 -40 0 -33 -13 -40 -80 -40 -67 0 -80 -7 -80 -40 0 -33 -13 -40 -80 -40 -67 0 -80 -7 -80 -40 0 -27 -13 -40 -40 -40 -27 0 -40 -13 -40 -40 0 -33 -13 -40 -80 -40 -67 0 -80 -7 -80 -40 0 -33 -13 -40 -80 -40 -67 0 -80 -7 -80 -40 0 -33 -13 -40 -80 -40 -67 0 -80 -7 -80 -40 0 -27 -13 -40 -40 -40 -27 0 -40 -13 -40 -40 0 -33 -13 -40 -80 -40 -67 0 -80 -7 -80 -40 0 -36 -13 -40 -120 -40 -107 0 -120 -4 -120 -40 0 -33 -13 -40 -80 -40 -67 0 -80 -7 -80 -40 0 -33 -13 -40 -80 -40 -67 0 -80 -7 -80 -40 0 -36 -13 -40 -120 -40 -107 0 -120 -4 -120 -40 0 -33 -13 -40 -80 -40 -67 0 -80 -7 -80 -40 0 -36 -13 -40 -120 -40 -107 0 -120 -4 -120 -40 0 -36 -13 -40 -120 -40 -107 0 -120 -4 -120 -40 0 -36 -13 -40 -120 -40 -107 0 -120 -4 -120 -40 0 -36 -13 -40 -120 -40 -107 0 -120 -4 -120 -40 0 -33 -13 -40 -80 -40 -67 0 -80 -7 -80 -40 0 -33 -13 -40 -80 -40 -67 0 -80 -7 -80 -40 0 -36 -13 -40 -120 -40 -107 0 -120 -4 -120 -40 0 -33 -13 -40 -80 -40 -67 0 -80 -7 -80 -40 0 -36 -13 -40 -120 -40 -107 0 -120 -4 -120 -40 0 -33 -13 -40 -80 -40 -67 0 -80 -7 -80 -40 0 -33 -13 -40 -80 -40 -67 0 -80 -7 -80 -40 0 -33 -13 -40 -80 -40 -67 0 -80 -7 -80 -40 0 -33 -13 -40 -80 -40 -67 0 -80 -7 -80 -40 0 -27 -13 -40 -40 -40 -27 0 -40 -13 -40 -40 0 -33 -13 -40 -80 -40 -67 0 -80 -7 -80 -40 0 -33 -13 -40 -80 -40 -67 0 -80 -7 -80 -40 0 -27 -13 -40 -40 -40 -27 0 -40 -13 -40 -40 0 -33 -13 -40 -80 -40 -67 0 -80 -7 -80 -40 0 -27 -13 -40 -40 -40 -27 0 -40 -13 -40 -40 0 -33 -13 -40 -80 -40 -67 0 -80 -7 -80 -40 0 -27 -13 -40 -40 -40 -27 0 -40 -13 -40 -40 0 -27 -13 -40 -40 -40 -27 0 -40 -13 -40 -40 0 -33 -13 -40 -80 -40 -67 0 -80 -7 -80 -40 0 -27 -13 -40 -40 -40 -27 0 -40 -13 -40 -40 0 -27 -13 -40 -40 -40 -27 0 -40 -13 -40 -40 0 -27 -13 -40 -40 -40 -27 0 -40 -13 -40 -40 0 -27 -13 -40 -40 -40 -27 0 -40 -13 -40 -40 0 -27 -13 -40 -40 -40 -27 0 -40 -13 -40 -40 0 -33 -13 -40 -80 -40 l-80 0 0 -80 0 -80 -80 0 -80 0 0 -80 0 -80 -80 0 c-67 0 -80 -7 -80 -40 0 -27 -13 -40 -40 -40 -27 0 -40 -13 -40 -40 0 -27 -13 -40 -40 -40 -27 0 -40 -13 -40 -40 0 -27 -13 -40 -40 -40 -27 0 -40 -13 -40 -40 0 -33 -13 -40 -80 -40 -67 0 -80 -7 -80 -40 0 -33 -13 -40 -80 -40 -67 0 -80 -7 -80 -40 0 -37 -13 -40 -160 -40 -147 0 -160 3 -160 40 0 27 -13 40 -40 40 -27 0 -40 13 -40 40 0 33 -13 40 -80 40 -67 0 -80 7 -80 40 0 27 -13 40 -40 40 -33 0 -40 13 -40 80 0 67 -7 80 -40 80 -33 0 -40 13 -40 80 0 67 -7 80 -40 80 -37 0 -40 13 -40 200 0 187 3 200 40 200 36 0 40 13 40 120 0 107 4 120 40 120 33 0 40 13 40 80 0 67 7 80 40 80 33 0 40 13 40 80 0 67 7 80 40 80 33 0 40 13 40 80 0 67 7 80 40 80 33 0 40 13 40 80 0 67 7 80 40 80 36 0 40 13 40 120 0 107 4 120 40 120 33 0 40 13 40 80 0 67 7 80 40 80 36 0 40 13 40 120 0 107 4 120 40 120 33 0 40 13 40 80 0 67 7 80 40 80 36 0 40 13 40 120 0 107 4 120 40 120 33 0 40 13 40 80 0 67 7 80 40 80 33 0 40 13 40 80 0 67 7 80 40 80 36 0 40 13 40 120 0 107 4 120 40 120 33 0 40 13 40 80 0 67 7 80 40 80 36 0 40 13 40 120 0 107 4 120 40 120 33 0 40 13 40 80 0 67 7 80 40 80 36 0 40 13 40 120 0 107 4 120 40 120 33 0 40 13 40 80 0 67 7 80 40 80 33 0 40 13 40 80 0 67 7 80 40 80 33 0 40 13 40 80 0 67 7 80 40 80 36 0 40 13 40 120 0 107 4 120 40 120 33 0 40 13 40 80 0 67 7 80 40 80 33 0 40 13 40 80 0 67 7 80 40 80 36 0 40 13 40 120 0 107 4 120 40 120 33 0 40 13 40 80 0 67 7 80 40 80 33 0 40 13 40 80 0 67 7 80 40 80 33 0 40 13 40 80 0 67 7 80 40 80 36 0 40 13 40 120 0 107 4 120 40 120 33 0 40 13 40 80 0 67 7 80 40 80 33 0 40 13 40 80 0 67 7 80 40 80 33 0 40 13 40 80 0 67 7 80 40 80 36 0 40 13 40 120 0 107 4 120 40 120 33 0 40 13 40 80 0 67 7 80 40 80 33 0 40 13 40 80 0 67 7 80 40 80 36 0 40 13 40 120 0 107 4 120 40 120 33 0 40 13 40 80 0 67 7 80 40 80 33 0 40 13 40 80 0 67 7 80 40 80 33 0 40 13 40 80 0 67 7 80 40 80 36 0 40 13 40 120 0 107 4 120 40 120 33 0 40 13 40 80 0 67 7 80 40 80 36 0 40 13 40 120 0 107 4 120 40 120 33 0 40 13 40 80 0 67 7 80 40 80 33 0 40 13 40 80 0 67 7 80 40 80 36 0 40 13 40 120 0 107 4 120 40 120 33 0 40 13 40 80 0 67 7 80 40 80 33 0 40 13 40 80 0 67 7 80 40 80 36 0 40 13 40 120 0 107 4 120 40 120 33 0 40 13 40 80 0 67 7 80 40 80 33 0 40 13 40 80 0 67 7 80 40 80 33 0 40 13 40 80 0 67 7 80 40 80 33 0 40 13 40 80 0 67 7 80 40 80 36 0 40 13 40 120 0 107 4 120 40 120 33 0 40 13 40 80 0 67 7 80 40 80 33 0 40 13 40 80 0 67 7 80 40 80 36 0 40 13 40 120 0 107 4 120 40 120 33 0 40 13 40 80 0 67 7 80 40 80 36 0 40 13 40 120 0 107 4 120 40 120 33 0 40 13 40 80 0 67 7 80 40 80 33 0 40 13 40 80 0 67 7 80 40 80 33 0 40 13 40 80 0 67 7 80 40 80 36 0 40 13 40 120 0 107 4 120 40 120 33 0 40 13 40 80 0 67 7 80 40 80 33 0 40 13 40 80 0 67 7 80 40 80 36 0 40 13 40 120 0 107 4 120 40 120 33 0 40 13 40 80 0 67 7 80 40 80 33 0 40 13 40 80 0 67 7 80 40 80 36 0 40 13 40 120 0 107 4 120 40 120 33 0 40 13 40 80 0 67 7 80 40 80 33 0 40 13 40 80 0 67 7 80 40 80 33 0 40 13 40 80 0 67 7 80 40 80 33 0 40 13 40 80 0 67 7 80 40 80 36 0 40 13 40 120 0 107 4 120 40 120 33 0 40 13 40 80 0 67 7 80 40 80 33 0 40 13 40 80 0 67 7 80 40 80 36 0 40 13 40 120 0 107 4 120 40 120 33 0 40 13 40 80 0 67 7 80 40 80 27 0 40 13 40 40 0 27 13 40 40 40 33 0 40 13 40 80 0 67 7 80 40 80 27 0 40 13 40 40 0 27 13 40 40 40 27 0 40 13 40 40 0 27 13 40 40 40 27 0 40 13 40 40 0 27 13 40 40 40 27 0 40 13 40 40 0 27 13 40 40 40 27 0 40 13 40 40 0 27 13 40 40 40 27 0 40 13 40 40 0 27 13 40 40 40 27 0 40 13 40 40 0 33 13 40 80 40 67 0 80 7 80 40 0 33 13 40 80 40 67 0 80 7 80 40 0 33 13 40 80 40 67 0 80 7 80 40 0 36 13 40 120 40 107 0 120 4 120 40 0 39 13 40 440 40 427 0 440 -1 440 -40z" />
<ns0:path d="M18400 21160 c0 -33 -13 -40 -80 -40 -67 0 -80 -7 -80 -40 0 -27 -13 -40 -40 -40 -27 0 -40 -13 -40 -40 0 -27 -13 -40 -40 -40 -33 0 -40 -13 -40 -80 0 -67 -7 -80 -40 -80 -33 0 -40 -13 -40 -80 0 -67 -7 -80 -40 -80 -33 0 -40 -13 -40 -80 0 -67 -7 -80 -40 -80 -36 0 -40 -13 -40 -120 0 -107 -4 -120 -40 -120 -33 0 -40 -13 -40 -80 0 -67 -7 -80 -40 -80 -33 0 -40 -13 -40 -80 0 -67 -7 -80 -40 -80 -33 0 -40 -13 -40 -80 0 -67 -7 -80 -40 -80 -36 0 -40 -13 -40 -120 0 -107 -4 -120 -40 -120 -33 0 -40 -13 -40 -80 0 -67 -7 -80 -40 -80 -33 0 -40 -13 -40 -80 0 -67 -7 -80 -40 -80 -36 0 -40 -13 -40 -120 0 -107 -4 -120 -40 -120 -33 0 -40 -13 -40 -80 0 -67 -7 -80 -40 -80 -36 0 -40 -13 -40 -120 0 -107 -4 -120 -40 -120 -33 0 -40 -13 -40 -80 0 -67 -7 -80 -40 -80 -33 0 -40 -13 -40 -80 0 -67 -7 -80 -40 -80 -33 0 -40 -13 -40 -80 0 -67 -7 -80 -40 -80 -33 0 -40 -13 -40 -80 0 -67 -7 -80 -40 -80 -36 0 -40 -13 -40 -120 0 -107 -4 -120 -40 -120 -33 0 -40 -13 -40 -80 0 -67 -7 -80 -40 -80 -27 0 -40 -13 -40 -40 0 -27 -13 -40 -40 -40 -36 0 -40 -13 -40 -120 0 -107 -4 -120 -40 -120 -36 0 -40 -13 -40 -120 0 -107 -4 -120 -40 -120 -33 0 -40 -13 -40 -80 0 -67 -7 -80 -40 -80 -33 0 -40 -13 -40 -80 0 -67 -7 -80 -40 -80 -36 0 -40 -13 -40 -120 0 -107 -4 -120 -40 -120 -33 0 -40 -13 -40 -80 0 -67 -7 -80 -40 -80 -36 0 -40 -13 -40 -120 0 -107 -4 -120 -40 -120 -33 0 -40 -13 -40 -80 0 -67 -7 -80 -40 -80 -33 0 -40 -13 -40 -80 0 -67 -7 -80 -40 -80 -36 0 -40 -13 -40 -120 0 -107 -4 -120 -40 -120 -33 0 -40 -13 -40 -80 0 -67 -7 -80 -40 -80 -33 0 -40 -13 -40 -80 0 -67 -7 -80 -40 -80 -36 0 -40 -13 -40 -120 0 -107 -4 -120 -40 -120 -33 0 -40 -13 -40 -80 0 -67 -7 -80 -40 -80 -33 0 -40 -13 -40 -80 0 -67 -7 -80 -40 -80 -33 0 -40 -13 -40 -80 0 -67 -7 -80 -40 -80 -36 0 -40 -13 -40 -120 0 -107 -4 -120 -40 -120 -33 0 -40 -13 -40 -80 0 -67 -7 -80 -40 -80 -33 0 -40 -13 -40 -80 0 -67 -7 -80 -40 -80 -36 0 -40 -13 -40 -120 0 -107 -4 -120 -40 -120 -33 0 -40 -13 -40 -80 0 -67 -7 -80 -40 -80 -33 0 -40 -13 -40 -80 0 -67 -7 -80 -40 -80 -33 0 -40 -13 -40 -80 0 -67 -7 -80 -40 -80 -36 0 -40 -13 -40 -120 0 -107 -4 -120 -40 -120 -33 0 -40 -13 -40 -80 0 -67 -7 -80 -40 -80 -36 0 -40 -13 -40 -120 0 -107 -4 -120 -40 -120 -33 0 -40 -13 -40 -80 0 -67 -7 -80 -40 -80 -36 0 -40 -13 -40 -120 0 -107 -4 -120 -40 -120 -33 0 -40 -13 -40 -80 0 -67 -7 -80 -40 -80 -33 0 -40 -13 -40 -80 0 -67 -7 -80 -40 -80 -36 0 -40 -13 -40 -120 0 -107 -4 -120 -40 -120 -33 0 -40 -13 -40 -80 0 -67 -7 -80 -40 -80 -36 0 -40 -13 -40 -120 0 -107 -4 -120 -40 -120 -33 0 -40 -13 -40 -80 0 -67 -7 -80 -40 -80 -36 0 -40 -13 -40 -120 0 -107 -4 -120 -40 -120 -33 0 -40 -13 -40 -80 0 -67 -7 -80 -40 -80 -36 0 -40 -13 -40 -120 0 -107 4 -120 40 -120 27 0 40 13 40 40 0 36 13 40 120 40 107 0 120 4 120 40 0 33 13 40 80 40 67 0 80 7 80 40 0 33 13 40 80 40 67 0 80 7 80 40 0 33 13 40 80 40 67 0 80 7 80 40 0 36 13 40 120 40 107 0 120 4 120 40 0 36 13 40 120 40 107 0 120 4 120 40 0 33 13 40 80 40 67 0 80 7 80 40 0 36 13 40 120 40 107 0 120 4 120 40 0 36 13 40 120 40 107 0 120 4 120 40 0 33 13 40 80 40 67 0 80 7 80 40 0 36 13 40 120 40 107 0 120 4 120 40 0 36 13 40 120 40 107 0 120 4 120 40 0 33 13 40 80 40 67 0 80 7 80 40 0 33 13 40 80 40 67 0 80 7 80 40 0 36 13 40 120 40 107 0 120 4 120 40 0 33 13 40 80 40 67 0 80 7 80 40 0 33 13 40 80 40 67 0 80 7 80 40 0 33 13 40 80 40 67 0 80 7 80 40 0 27 13 40 40 40 27 0 40 13 40 40 0 33 13 40 80 40 67 0 80 7 80 40 0 33 13 40 80 40 67 0 80 7 80 40 0 33 13 40 80 40 67 0 80 7 80 40 0 27 13 40 40 40 27 0 40 13 40 40 0 33 13 40 80 40 67 0 80 7 80 40 0 27 13 40 40 40 27 0 40 13 40 40 0 33 13 40 80 40 67 0 80 7 80 40 0 27 13 40 40 40 27 0 40 13 40 40 0 33 13 40 80 40 67 0 80 7 80 40 0 27 13 40 40 40 27 0 40 13 40 40 0 27 13 40 40 40 27 0 40 13 40 40 0 27 13 40 40 40 27 0 40 13 40 40 0 33 13 40 80 40 67 0 80 7 80 40 0 27 13 40 40 40 27 0 40 13 40 40 0 27 13 40 40 40 27 0 40 13 40 40 0 27 13 40 40 40 27 0 40 13 40 40 0 27 13 40 40 40 27 0 40 13 40 40 0 27 13 40 40 40 27 0 40 13 40 40 0 27 13 40 40 40 27 0 40 13 40 40 0 27 13 40 40 40 27 0 40 13 40 40 0 27 13 40 40 40 27 0 40 13 40 40 0 27 13 40 40 40 27 0 40 13 40 40 0 27 13 40 40 40 33 0 40 13 40 80 0 67 7 80 40 80 27 0 40 13 40 40 0 27 13 40 40 40 27 0 40 13 40 40 0 27 13 40 40 40 33 0 40 13 40 80 0 67 7 80 40 80 27 0 40 13 40 40 0 27 13 40 40 40 27 0 40 13 40 40 0 27 13 40 40 40 33 0 40 13 40 80 0 67 7 80 40 80 33 0 40 13 40 80 0 67 7 80 40 80 33 0 40 13 40 80 0 67 7 80 40 80 33 0 40 13 40 80 0 67 7 80 40 80 36 0 40 13 40 120 0 107 4 120 40 120 36 0 40 13 40 120 0 107 4 120 40 120 39 0 40 13 40 680 0 667 -1 680 -40 680 -37 0 -40 13 -40 160 0 147 -3 160 -40 160 -36 0 -40 13 -40 120 0 107 -4 120 -40 120 -33 0 -40 13 -40 80 0 67 -7 80 -40 80 -36 0 -40 13 -40 120 0 107 -4 120 -40 120 -33 0 -40 13 -40 80 0 67 -7 80 -40 80 -33 0 -40 13 -40 80 0 67 -7 80 -40 80 -36 0 -40 13 -40 120 0 107 -4 120 -40 120 -33 0 -40 13 -40 80 0 67 -7 80 -40 80 -36 0 -40 13 -40 120 0 107 -4 120 -40 120 -33 0 -40 13 -40 80 0 67 -7 80 -40 80 -33 0 -40 13 -40 80 0 67 -7 80 -40 80 -33 0 -40 13 -40 80 0 67 -7 80 -40 80 -36 0 -40 13 -40 120 0 107 -4 120 -40 120 -33 0 -40 13 -40 80 0 67 -7 80 -40 80 -33 0 -40 13 -40 80 0 67 -7 80 -40 80 -36 0 -40 13 -40 120 0 107 -4 120 -40 120 -33 0 -40 13 -40 80 0 67 -7 80 -40 80 -33 0 -40 13 -40 80 0 67 -7 80 -40 80 -33 0 -40 13 -40 80 0 67 -7 80 -40 80 -33 0 -40 13 -40 80 0 67 -7 80 -40 80 -33 0 -40 13 -40 80 0 67 -7 80 -40 80 -33 0 -40 13 -40 80 0 67 -7 80 -40 80 -27 0 -40 13 -40 40 0 27 -13 40 -40 40 -27 0 -40 13 -40 40 0 27 -13 40 -40 40 -27 0 -40 13 -40 40 0 36 -13 40 -120 40 -107 0 -120 -4 -120 -40z" />
</ns0:g>
</svg></svg>