<svg xmlns="http://www.w3.org/2000/svg" width="1000" height="1120" viewBox="0 0 1000 1120"><svg x="220.0" y="90" width="560" height="530" viewBox="0 0 1564.000000 1480.000000" overflow="visible"><ns0:g xmlns:ns0="http://www.w3.org/2000/svg" transform="translate(-148.000000,1564.000000) scale(0.050000,-0.050000)" fill="#FFFFFF" stroke="none">
<ns0:path d="M18160 31240 c0 -39 -13 -40 -360 -40 -347 0 -360 -1 -360 -40 0 -37 -13 -40 -160 -40 -147 0 -160 -3 -160 -40 0 -37 -13 -40 -160 -40 -147 0 -160 -3 -160 -40 0 -36 -13 -40 -120 -40 -107 0 -120 -4 -120 -40 0 -33 -13 -40 -80 -40 -67 0 -80 -7 -80 -40 0 -36 -13 -40 -120 -40 -107 0 -120 -4 -120 -40 0 -36 -13 -40 -120 -40 -107 0 -120 -4 -120 -40 0 -33 -13 -40 -80 -40 -67 0 -80 -7 -80 -40 0 -33 -13 -40 -80 -40 -67 0 -80 -7 -80 -40 0 -33 -13 -40 -80 -40 -67 0 -80 -7 -80 -40 0 -33 -13 -40 -80 -40 -67 0 -80 -7 -80 -40 0 -27 -13 -40 -40 -40 -27 0 -40 -13 -40 -40 0 -33 -13 -40 -80 -40 -67 0 -80 -7 -80 -40 0 -27 -13 -40 -40 -40 -27 0 -40 -13 -40 -40 0 -33 -13 -40 -80 -40 -67 0 -80 -7 -80 -40 0 -27 -13 -40 -40 -40 -27 0 -40 -13 -40 -40 0 -27 -13 -40 -40 -40 -27 0 -40 -13 -40 -40 0 -27 -13 -40 -40 -40 -27 0 -40 -13 -40 -40 0 -33 -13 -40 -80 -40 -67 0 -80 -7 -80 -40 0 -27 -13 -40 -40 -40 -27 0 -40 -13 -40 -40 0 -27 -13 -40 -40 -40 -27 0 -40 -13 -40 -40 0 -27 -13 -40 -40 -40 -27 0 -40 -13 -40 -40 0 -27 -13 -40 -40 -40 -27 0 -40 -13 -40 -40 0 -27 -13 -40 -40 -40 -27 0 -40 -13 -40 -40 0 -27 -13 -40 -40 -40 -27 0 -40 -13 -40 -40 0 -27 -13 -40 -40 -40 -27 0 -40 -13 -40 -40 0 -27 -13 -40 -40 -40 -33 0 -40 -13 -40 -80 0 -67 -7 -80 -40 -80 -27 0 -40 -13 -40 -40 0 -27 -13 -40 -40 -40 -27 0 -40 -13 -40 -40 0 -27 -13 -40 -40 -40 -33 0 -40 -13 -40 -80 0 -67 -7 -80 -40 -80 -27 0 -40 -13 -40 -40 0 -27 -13 -40 -40 -40 -33 0 -40 -13 -40 -80 0 -67 -7 -80 -40 -80 -27 0 -40 -13 -40 -40 0 -27 -13 -40 -40 -40 -33 0 -40 -13 -40 -80 0 -67 -7 -80 -40 -80 -27 0 -40 -13 -40 -40 0 -27 -13 -40 -40 -40 -33 0 -40 -13 -40 -80 0 -67 -7 -80 -40 -80 -33 0 -40 -13 -40 -80 0 -67 -7 -80 -40 -80 -33 0 -40 -13 -40 -80 0 -67 -7 -80 -40 -80 -33 0 -40 -13 -40 -80 0 -67 -7 -80 -40 -80 -33 0 -40 -13 -40 -80 0 -67 -7 -80 -40 -80 -33 0 -40 -13 -40 -80 0 -67 -7 -80 -40 -80 -33 0 -40 -13 -40 -80 0 -67 -7 -80 -40 -80 -36 0 -40 -13 -40 -120 0 -107 -4 -120 -40 -120 -33 0 -40 -13 -40 -80 0 -67 -7 -80 -40 -80 -36 0 -40 -13 -40 -120 0 -107 -4 -120 -40 -120 -33 0 -40 -13 -40 -80 0 -67 -7 -80 -40 -80 -33 0 -40 -13 -40 -80 0 -67 -7 -80 -40 -80 -33 0 -40 -13 -40 -80 0 -67 -7 -80 -40 -80 -33 0 -40 -13 -40 -80 0 -67 -7 -80 -40 -80 -33 0 -40 -13 -40 -80 0 -67 -7 -80 -40 -80 -33 0 -40 -13 -40 -80 0 -67 -7 -80 -40 -80 -33 0 -40 -13 -40 -80 0 -67 -7 -80 -40 -80 -33 0 -40 -13 -40 -80 0 -67 -7 -80 -40 -80 -36 0 -40 -13 -40 -120 0 -107 -4 -120 -40 -120 -33 0 -40 -13 -40 -80 0 -67 -7 -80 -40 -80 -33 0 -40 -13 -40 -80 0 -67 -7 -80 -40 -80 -33 0 -40 -13 -40 -80 0 -67 -7 -80 -40 -80 -33 0 -40 -13 -40 -80 0 -67 -7 -80 -40 -80 -36 0 -40 -13 -40 -120 0 -107 -4 -120 -40 -120 -36 0 -40 -13 -40 -120 0 -107 -4 -120 -40 -120 -33 0 -40 -13 -40 -80 0 -67 -7 -80 -40 -80 -33 0 -40 -13 -40 -80 0 -67 -7 -80 -40 -80 -33 0 -40 -13 -40 -80 0 -67 -7 -80 -40 -80 -33 0 -40 -13 -40 -80 0 -67 -7 -80 -40 -80 -33 0 -40 -13 -40 -80 0 -67 -7 -80 -40 -80 -33 0 -40 -13 -40 -80 0 -67 -7 -80 -40 -80 -36 0 -40 -13 -40 -120 0 -107 -4 -120 -40 -120 -33 0 -40 -13 -40 -80 0 -67 -7 -80 -40 -80 -33 0 -40 -13 -40 -80 0 -67 -7 -80 -40 -80 -33 0 -40 -13 -40 -80 0 -67 -7 -80 -40 -80 -33 0 -40 -13 -40 -80 0 -67 -7 -80 -40 -80 -33 0 -40 -13 -40 -80 0 -67 -7 -80 -40 -80 -36 0 -40 -13 -40 -120 0 -107 -4 -120 -40 -120 -33 0 -40 -13 -40 -80 0 -67 -7 -80 -40 -80 -33 0 -40 -13 -40 -80 0 -67 -7 -80 -40 -80 -33 0 -40 -13 -40 -80 0 -67 -7 -80 -40 -80 -33 0 -40 -13 -40 -80 0 -67 -7 -80 -40 -80 -36 0 -40 -13 -40 -120 0 -107 -4 -120 -40 -120 -33 0 -40 -13 -40 -80 0 -67 -7 -80 -40 -80 -33 0 -40 -13 -40 -80 0 -67 -7 -80 -40 -80 -33 0 -40 -13 -40 -80 0 -67 -7 -80 -40 -80 -36 0 -40 -13 -40 -120 0 -107 -4 -120 -40 -120 -27 0 -40 -13 -40 -40 0 -27 -13 -40 -40 -40 -36 0 -40 -13 -40 -120 0 -107 -4 -120 -40 -120 -33 0 -40 -13 -40 -80 0 -67 -7 -80 -40 -80 -33 0 -40 -13 -40 -80 0 -67 -7 -80 -40 -80 -33 0 -40 -13 -40 -80 0 -67 -7 -80 -40 -80 -36 0 -40 -13 -40 -120 0 -107 -4 -120 -40 -120 -33 0 -40 -13 -40 -80 0 -67 -7 -80 -40 -80 -33 0 -40 -13 -40 -80 0 -67 -7 -80 -40 -80 -36 0 -40 -13 -40 -120 0 -107 -4 -120 -40 -120 -33 0 -40 -13 -40 -80 0 -67 -7 -80 -40 -80 -33 0 -40 -13 -40 -80 0 -67 -7 -80 -40 -80 -33 0 -40 -13 -40 -80 0 -67 -7 -80 -40 -80 -33 0 -40 -13 -40 -80 0 -67 -7 -80 -40 -80 -33 0 -40 -13 -40 -80 0 -67 -7 -80 -40 -80 -33 0 -40 -13 -40 -80 0 -67 -7 -80 -40 -80 -36 0 -40 -13 -40 -120 0 -107 -4 -120 -40 -120 -33 0 -40 -13 -40 -80 0 -67 -7 -80 -40 -80 -33 0 -40 -13 -40 -80 0 -67 -7 -80 -40 -80 -33 0 -40 -13 -40 -80 0 -67 -7 -80 -40 -80 -33 0 -40 -13 -40 -80 0 -67 -7 -80 -40 -80 -33 0 -40 -13 -40 -80 0 -67 -7 -80 -40 -80 -33 0 -40 -13 -40 -80 0 -67 -7 -80 -40 -80 -36 0 -40 -13 -40 -120 0 -107 -4 -120 -40 -120 -33 0 -40 -13 -40 -80 0 -67 -7 -80 -40 -80 -36 0 -40 -13 -40 -120 0 -107 -4 -120 -40 -120 -33 0 -40 -13 -40 -80 0 -67 -7 -80 -40 -80 -33 0 -40 -13 -40 -80 0 -67 -7 -80 -40 -80 -33 0 -40 -13 -40 -80 0 -67 -7 -80 -40 -80 -36 0 -40 -13 -40 -120 0 -107 -4 -120 -40 -120 -33 0 -40 -13 -40 -80 0 -67 -7 -80 -40 -80 -33 0 -40 -13 -40 -80 0 -67 -7 -80 -40 -80 -33 0 -40 -13 -40 -80 0 -67 -7 -80 -40 -80 -33 0 -40 -13 -40 -80 0 -67 -7 -80 -40 -80 -36 0 -40 -13 -40 -120 0 -107 -4 -120 -40 -120 -33 0 -40 -13 -40 -80 0 -67 -7 -80 -40 -80 -33 0 -40 -13 -40 -80 0 -67 -7 -80 -40 -80 -33 0 -40 -13 -40 -80 0 -67 -7 -80 -40 -80 -33 0 -40 -13 -40 -80 0 -67 -7 -80 -40 -80 -33 0 -40 -13 -40 -80 0 -67 -7 -80 -40 -80 -33 0 -40 -13 -40 -80 0 -67 -7 -80 -40 -80 -36 0 -40 -13 -40 -120 0 -107 -4 -120 -40 -120 -33 0 -40 -13 -40 -80 0 -67 -7 -80 -40 -80 -36 0 -40 -13 -40 -120 0 -107 -4 -120 -40 -120 -33 0 -40 -13 -40 -80 0 -67 -7 -80 -40 -80 -33 0 -40 -13 -40 -80 0 -67 -7 -80 -40 -80 -36 0 -40 -13 -40 -120 0 -107 -4 -120 -40 -120 -33 0 -40 -13 -40 -80 0 -67 -7 -80 -40 -80 -33 0 -40 -13 -40 -80 0 -67 -7 -80 -40 -80 -33 0 -40 -13 -40 -80 0 -67 -7 -80 -40 -80 -36 0 -40 -13 -40 -120 0 -107 -4 -120 -40 -120 -27 0 -40 -13 -40 -40 0 -27 -13 -40 -40 -40 -36 0 -40 -13 -40 -120 0 -107 -4 -120 -40 -120 -33 0 -40 -13 -40 -80 0 -67 -7 -80 -40 -80 -33 0 -40 -13 -40 -80 0 -67 -7 -80 -40 -80 -33 0 -40 -13 -40 -80 0 -67 -7 -80 -40 -80 -36 0 -40 -13 -40 -120 0 -107 -4 -120 -40 -120 -33 0 -40 -13 -40 -80 0 -67 -7 -80 -40 -80 -36 0 -40 -13 -40 -120 0 -107 -4 -120 -40 -120 -33 0 -40 -13 -40 -80 0 -67 -7 -80 -40 -80 -33 0 -40 -13 -40 -80 0 -67 -7 -80 -40 -80 -33 0 -40 -13 -40 -80 0 -67 -7 -80 -40 -80 -36 0 -40 -13 -40 -120 0 -107 -4 -120 -40 -120 -33 0 -40 -13 -40 -80 0 -67 -7 -80 -40 -80 -33 0 -40 -13 -40 -80 0 -67 -7 -80 -40 -80 -33 0 -40 -13 -40 -80 0 -67 -7 -80 -40 -80 -33 0 -40 -13 -40 -80 0 -67 -7 -80 -40 -80 -33 0 -40 -13 -40 -80 0 -67 -7 -80 -40 -80 -36 0 -40 -13 -40 -120 0 -107 -4 -120 -40 -120 -33 0 -40 -13 -40 -80 0 -67 -7 -80 -40 -80 -33 0 -40 -13 -40 -80 0 -67 -7 -80 -40 -80 -33 0 -40 -13 -40 -80 0 -67 -7 -80 -40 -80 -33 0 -40 -13 -40 -80 0 -67 -7 -80 -40 -80 -33 0 -40 -13 -40 -80 0 -67 -7 -80 -40 -80 -36 0 -40 -13 -40 -120 0 -107 -4 -120 -40 -120 -33 0 -40 -13 -40 -80 0 -67 -7 -80 -40 -80 -33 0 -40 -13 -40 -80 0 -67 -7 -80 -40 -80 -33 0 -40 -13 -40 -80 0 -67 -7 -80 -40 -80 -36 0 -40 -13 -40 -120 0 -107 -4 -120 -40 -120 -36 0 -40 -13 -40 -120 0 -107 -4 -120 -40 -120 -39 0 -40 -13 -40 -680 0 -667 1 -680 40 -680 37 0 40 -13 40 -160 0 -147 3 -160 40 -160 36 0 40 -13 40 -120 0 -107 4 -120 40 -120 33 0 40 -13 40 -80 0 -67 7 -80 40 -80 33 0 40 -13 40 -80 0 -67 7 -80 40 -80 33 0 40 -13 40 -80 0 -67 7 -80 40 -80 33 0 40 -13 40 -80 0 -67 7 -80 40 -80 27 0 40 -13 40 -40 0 -27 13 -40 40 -40 27 0 40 -13 40 -40 0 -27 13 -40 40 -40 27 0 40 -13 40 -40 0 -27 13 -40 40 -40 33 0 40 -13 40 -80 0 -67 7 -80 40 -80 27 0 40 -13 40 -40 0 -27 13 -40 40 -40 27 0 40 -13 40 -40 0 -27 13 -40 40 -40 27 0 40 -13 40 -40 0 -27 13 -40 40 -40 27 0 40 -13 40 -40 0 -33 13 -40 80 -40 67 0 80 -7 80 -40 0 -27 13 -40 40 -40 27 0 40 -13 40 -40 0 -27 13 -40 40 -40 27 0 40 -13 40 -40 0 -27 13 -40 40 -40 27 0 40 -13 40 -40 0 -33 13 -40 80 -40 67 0 80 -7 80 -40 0 -33 13 -40 80 -40 67 0 80 -7 80 -40 0 -36 13 -40 120 -40 107 0 120 -4 120 -40 0 -36 13 -40 120 -40 107 0 120 -4 120 -40 0 -37 13 -40 160 -40 147 0 160 -3 160 -40 0 -37 13 -40 200 -40 187 0 200 -3 200 -40 0 -39 13 -40 400 -40 387 0 400 1 400 40 0 38 13 40 240 40 227 0 240 2 240 40 0 37 13 40 200 40 187 0 200 3 200 40 0 36 13 40 120 40 107 0 120 4 120 40 0 36 13 40 120 40 107 0 120 4 120 40 0 33 13 40 80 40 67 0 80 7 80 40 0 33 13 40 80 40 67 0 80 7 80 40 0 33 13 40 80 40 67 0 80 7 80 40 0 33 13 40 80 40 67 0 80 7 80 40 0 33 13 40 80 40 67 0 80 7 80 40 0 33 13 40 80 40 67 0 80 7 80 40 0 33 13 40 80 40 67 0 80 7 80 40 0 27 13 40 40 40 27 0 40 13 40 40 0 33 13 40 80 40 67 0 80 7 80 40 0 27 13 40 40 40 27 0 40 13 40 40 0 33 13 40 80 40 67 0 80 7 80 40 0 27 13 40 40 40 27 0 40 13 40 40 0 27 13 40 40 40 27 0 40 13 40 40 0 33 13 40 80 40 67 0 80 7 80 40 0 27 13 40 40 40 27 0 40 13 40 40 0 33 13 40 80 40 67 0 80 7 80 40 0 27 13 40 40 40 27 0 40 13 40 40 0 27 13 40 40 40 27 0 40 13 40 40 0 27 13 40 40 40 27 0 40 13 40 40 0 27 13 40 40 40 27 0 40 13 40 40 0 27 13 40 40 40 27 0 40 13 40 40 0 33 13 40 80 40 67 0 80 7 80 40 0 27 13 40 40 40 27 0 40 13 40 40 0 27 13 40 40 40 27 0 40 13 40 40 0 27 13 40 40 40 27 0 40 13 40 40 0 27 13 40 40 40 27 0 40 13 40 40 0 27 13 40 40 40 27 0 40 13 40 40 0 27 13 40 40 40 27 0 40 13 40 40 0 27 13 40 40 40 27 0 40 13 40 40 0 27 13 40 40 40 27 0 40 13 40 40 0 27 13 40 40 40 27 0 40 13 40 40 0 27 13 40 40 40 27 0 40 13 40 40 0 27 13 40 40 40 27 0 40 13 40 40 0 27 13 40 40 40 27 0 40 13 40 40 0 27 13 40 40 40 27 0 40 13 40 40 0 27 13 40 40 40 27 0 40 13 40 40 0 27 13 40 40 40 27 0 40 13 40 40 0 33 13 40 80 40 l80 0 0 80 0 80 80 0 c67 0 80 7 80 40 0 27 13 40 40 40 27 0 40 13 40 40 0 27 13 40 40 40 27 0 40 13 40 40 0 27 13 40 40 40 27 0 40 13 40 40 0 27 13 40 40 40 27 0 40 13 40 40 0 27 13 40 40 40 27 0 40 13 40 40 0 27 13 40 40 40 27 0 40 13 40 40 0 27 13 40 40 40 27 0 40 13 40 40 0 27 13 40 40 40 27 0 40 13 40 40 0 27 13 40 40 40 27 0 40 13 40 40 0 27 13 40 40 40 27 0 40 13 40 40 0 33 13 40 80 40 67 0 80 7 80 40 0 27 13 40 40 40 27 0 40 13 40 40 0 27 13 40 40 40 27 0 40 13 40 40 0 27 13 40 40 40 27 0 40 13 40 40 0 33 13 40 80 40 67 0 80 7 80 40 0 27 13 40 40 40 27 0 40 13 40 40 0 27 13 40 40 40 27 0 40 13 40 40 0 33 13 40 80 40 67 0 80 7 80 40 0 27 13 40 40 40 27 0 40 13 40 40 0 33 13 40 80 40 67 0 80 7 80 40 0 33 13 40 80 40 67 0 80 7 80 40 0 27 13 40 40 40 27 0 40 13 40 40 0 33 13 40 80 40 67 0 80 7 80 40 0 33 13 40 80 40 67 0 80 7 80 40 0 33 13 40 80 40 67 0 80 7 80 40 0 33 13 40 80 40 67 0 80 7 80 40 0 33 13 40 80 40 67 0 80 7 80 40 0 33 13 40 80 40 67 0 80 7 80 40 0 36 13 40 120 40 107 0 120 4 120 40 0 36 13 40 120 40 107 0 120 4 120 40 0 37 13 40 160 40 147 0 160 3 160 40 0 36 13 40 120 40 107 0 120 4 120 40 0 37 13 40 160 40 147 0 160 3 160 40 0 38 13 40 280 40 267 0 280 2 280 40 0 39 13 40 480 40 467 0 480 1 480 40 0 38 13 40 320 40 307 0 320 -2 320 -40 0 -38 13 -40 320 -40 307 0 320 -2 320 -40 0 -37 13 -40 200 -40 187 0 200 -3 200 -40 0 -37 13 -40 200 -40 187 0 200 -3 200 -40 0 -37 13 -40 160 -40 147 0 160 -3 160 -40 0 -36 13 -40 120 -40 107 0 120 -4 120 -40 0 -36 13 -40 120 -40 107 0 120 -4 120 -40 0 -33 13 -40 80 -40 67 0 80 -7 80 -40 0 -36 13 -40 120 -40 107 0 120 -4 120 -40 0 -33 13 -40 80 -40 67 0 80 -7 80 -40 0 -33 13 -40 80 -40 67 0 80 -7 80 -40 0 -27 13 -40 40 -40 27 0 40 -13 40 -40 0 -33 13 -40 80 -40 67 0 80 -7 80 -40 0 -33 13 -40 80 -40 67 0 80 -7 80 -40 0 -33 13 -40 80 -40 67 0 80 -7 80 -40 0 -27 13 -40 40 -40 27 0 40 -13 40 -40 0 -33 13 -40 80 -40 67 0 80 -7 80 -40 0 -27 13 -40 40 -40 27 0 40 -13 40 -40 0 -33 13 -40 80 -40 67 0 80 -7 80 -40 0 -27 13 -40 40 -40 27 0 40 -13 40 -40 0 -33 13 -40 80 -40 67 0 80 -7 80 -40 0 -27 13 -40 40 -40 27 0 40 -13 40 -40 0 -33 13 -40 80 -40 67 0 80 -7 80 -40 0 -27 13 -40 40 -40 27 0 40 -13 40 -40 0 -27 13 -40 40 -40 27 0 40 -13 40 -40 0 -27 13 -40 40 -40 27 0 40 -13 40 -40 0 -33 13 -40 80 -40 67 0 80 -7 80 -40 0 -27 13 -40 40 -40 27 0 40 -13 40 -40 0 -27 13 -40 40 -40 27 0 40 -13 40 -40 0 -27 13 -40 40 -40 27 0 40 -13 40 -40 0 -27 13 -40 40 -40 27 0 40 -13 40 -40 0 -27 13 -40 40 -40 27 0 40 -13 40 -40 0 -27 13 -40 40 -40 27 0 40 -13 40 -40 0 -27 13 -40 40 -40 27 0 40 -13 40 -40 0 -27 13 -40 40 -40 27 0 40 -13 40 -40 0 -27 13 -40 40 -40 27 0 40 -13 40 -40 0 -33 13 -40 80 -40 67 0 80 -7 80 -40 0 -27 13 -40 40 -40 27 0 40 -13 40 -40 0 -27 13 -40 40 -40 27 0 40 -13 40 -40 0 -27 13 -40 40 -40 27 0 40 -13 40 -40 0 -27 13 -40 40 -40 27 0 40 -13 40 -40 0 -27 13 -40 40 -40 27 0 40 -13 40 -40 0 -27 13 -40 40 -40 27 0 40 -13 40 -40 0 -27 13 -40 40 -40 27 0 40 -13 40 -40 0 -27 13 -40 40 -40 27 0 40 -13 40 -40 0 -27 13 -40 40 -40 33 0 40 -13 40 -80 0 -67 7 -80 40 -80 27 0 40 -13 40 -40 0 -27 13 -40 40 -40 27 0 40 -13 40 -40 0 -27 13 -40 40 -40 27 0 40 -13 40 -40 0 -27 13 -40 40 -40 27 0 40 -13 40 -40 0 -27 13 -40 40 -40 27 0 40 -13 40 -40 0 -33 13 -40 80 -40 l80 0 0 -80 c0 -67 7 -80 40 -80 27 0 40 -13 40 -40 0 -27 13 -40 40 -40 27 0 40 -13 40 -40 0 -27 13 -40 40 -40 27 0 40 -13 40 -40 0 -27 13 -40 40 -40 27 0 40 -13 40 -40 0 -27 13 -40 40 -40 27 0 40 -13 40 -40 0 -27 13 -40 40 -40 27 0 40 -13 40 -40 0 -27 13 -40 40 -40 27 0 40 -13 40 -40 0 -27 13 -40 40 -40 27 0 40 -13 40 -40 0 -33 13 -40 80 -40 67 0 80 -7 80 -40 0 -27 13 -40 40 -40 27 0 40 -13 40 -40 0 -27 13 -40 40 -40 27 0 40 -13 40 -40 0 -27 13 -40 40 -40 27 0 40 -13 40 -40 0 -33 13 -40 80 -40 67 0 80 -7 80 -40 0 -27 13 -40 40 -40 27 0 40 -13 40 -40 0 -27 13 -40 40 -40 27 0 40 -13 40 -40 0 -33 13 -40 80 -40 67 0 80 -7 80 -40 0 -33 13 -40 80 -40 67 0 80 -7 80 -40 0 -27 13 -40 40 -40 27 0 40 -13 40 -40 0 -33 13 -40 80 -40 67 0 80 -7 80 -40 0 -33 13 -40 80 -40 67 0 80 -7 80 -40 0 -36 13 -40 120 -40 107 0 120 -4 120 -40 0 -33 13 -40 80 -40 67 0 80 -7 80 -40 0 -36 13 -40 120 -40 107 0 120 -4 120 -40 0 -37 13 -40 160 -40 147 0 160 -3 160 -40 0 -37 13 -40 160 -40 147 0 160 -3 160 -40 0 -39 13 -40 720 -40 707 0 720 1 720 40 0 37 13 40 160 40 147 0 160 3 160 40 0 37 13 40 200 40 187 0 200 3 200 40 0 36 13 40 120 40 107 0 120 4 120 40 0 33 13 40 80 40 67 0 80 7 80 40 0 33 13 40 80 40 67 0 80 7 80 40 0 33 13 40 80 40 67 0 80 7 80 40 0 33 13 40 80 40 67 0 80 7 80 40 0 27 13 40 40 40 27 0 40 13 40 40 0 33 13 40 80 40 67 0 80 7 80 40 0 27 13 40 40 40 27 0 40 13 40 40 0 27 13 40 40 40 27 0 40 13 40 40 0 27 13 40 40 40 27 0 40 13 40 40 0 27 13 40 40 40 27 0 40 13 40 40 0 27 13 40 40 40 27 0 40 13 40 40 0 27 13 40 40 40 27 0 40 13 40 40 0 27 13 40 40 40 27 0 40 13 40 40 0 27 13 40 40 40 27 0 40 13 40 40 0 27 13 40 40 40 27 0 40 13 40 40 0 27 13 40 40 40 33 0 40 13 40 80 0 67 7 80 40 80 33 0 40 13 40 80 0 67 7 80 40 80 27 0 40 13 40 40 0 27 13 40 40 40 33 0 40 13 40 80 0 67 7 80 40 80 33 0 40 13 40 80 0 67 7 80 40 80 36 0 40 13 40 120 0 107 4 120 40 120 36 0 40 13 40 120 0 107 4 120 40 120 36 0 40 13 40 120 0 107 4 120 40 120 38 0 40 13 40 280 0 267 2 280 40 280 39 0 40 13 40 400 0 387 -1 400 -40 400 -37 0 -40 13 -40 160 0 147 -3 160 -40 160 -37 0 -40 13 -40 160 0 147 -3 160 -40 160 -36 0 -40 13 -40 120 0 107 -4 120 -40 120 -33 0 -40 13 -40 80 0 67 -7 80 -40 80 -33 0 -40 13 -40 80 0 67 -7 80 -40 80 -36 0 -40 13 -40 120 0 107 -4 120 -40 120 -27 0 -40 13 -40 40 0 27 -13 40 -40 40 -36 0 -40 13 -40 120 0 107 -4 120 -40 120 -33 0 -40 13 -40 80 0 67 -7 80 -40 80 -33 0 -40 13 -40 80 0 67 -7 80 -40 80 -33 0 -40 13 -40 80 0 67 -7 80 -40 80 -33 0 -40 13 -40 80 0 67 -7 80 -40 80 -27 0 -40 13 -40 40 0 27 -13 40 -40 40 -36 0 -40 13 -40 120 0 107 -4 120 -40 120 -33 0 -40 13 -40 80 0 67 -7 80 -40 80 -33 0 -40 13 -40 80 0 67 -7 80 -40 80 -33 0 -40 13 -40 80 0 67 -7 80 -40 80 -33 0 -40 13 -40 80 0 67 -7 80 -40 80 -33 0 -40 13 -40 80 0 67 -7 80 -40 80 -33 0 -40 13 -40 80 0 67 -7 80 -40 80 -36 0 -40 13 -40 120 0 107 -4 120 -40 120 -33 0 -40 13 -40 80 0 67 -7 80 -40 80 -33 0 -40 13 -40 80 0 67 -7 80 -40 80 -33 0 -40 13 -40 80 0 67 -7 80 -40 80 -33 0 -40 13 -40 80 0 67 -7 80 -40 80 -33 0 -40 13 -40 80 0 67 -7 80 -40 80 -33 0 -40 13 -40 80 0 67 -7 80 -40 80 -33 0 -40 13 -40 80 0 67 -7 80 -40 80 -33 0 -40 13 -40 80 0 67 -7 80 -40 80 -33 0 -40 13 -40 80 0 67 -7 80 -40 80 -36 0 -40 13 -40 120 0 107 -4 120 -40 120 -33 0 -40 13 -40 80 0 67 -7 80 -40 80 -36 0 -40 13 -40 120 0 107 -4 120 -40 120 -33 0 -40 13 -40 80 0 67 -7 80 -40 80 -33 0 -40 13 -40 80 0 67 -7 80 -40 80 -33 0 -40 13 -40 80 0 67 -7 80 -40 80 -33 0 -40 13 -40 80 0 67 -7 80 -40 80 -33 0 -40 13 -40 80 0 67 -7 80 -40 80 -33 0 -40 13 -40 80 0 67 -7 80 -40 80 -36 0 -40 13 -40 120 0 107 -4 120 -40 120 -33 0 -40 13 -40 80 0 67 -7 80 -40 80 -33 0 -40 13 -40 80 0 67 -7 80 -40 80 -36 0 -40 13 -40 120 0 107 -4 120 -40 120 -33 0 -40 13 -40 80 0 67 -7 80 -40 80 -33 0 -40 13 -40 80 0 67 -7 80 -40 80 -33 0 -40 13 -40 80 0 67 -7 80 -40 80 -36 0 -40 13 -40 120 0 107 -4 120 -40 120 -33 0 -40 13 -40 80 0 67 -7 80 -40 80 -33 0 -40 13 -40 80 0 67 -7 80 -40 80 -33 0 -40 13 -40 80 0 67 -7 80 -40 80 -33 0 -40 13 -40 80 0 67 -7 80 -40 80 -33 0 -40 13 -40 80 0 67 -7 80 -40 80 -36 0 -40 13 -40 120 0 107 -4 120 -40 120 -33 0 -40 13 -40 80 0 67 -7 80 -40 80 -33 0 -40 13 -40 80 0 67 -7 80 -40 80 -33 0 -40 13 -40 80 0 67 -7 80 -40 80 -36 0 -40 13 -40 120 0 107 -4 120 -40 120 -27 0 -40 13 -40 40 0 27 -13 40 -40 40 -36 0 -40 13 -40 120 0 107 -4 120 -40 120 -33 0 -40 13 -40 80 0 67 -7 80 -40 80 -33 0 -40 13 -40 80 0 67 -7 80 -40 80 -33 0 -40 13 -40 80 0 67 -7 80 -40 80 -33 0 -40 13 -40 80 0 67 -7 80 -40 80 -36 0 -40 13 -40 120 0 107 -4 120 -40 120 -33 0 -40 13 -40 80 0 67 -7 80 -40 80 -33 0 -40 13 -40 80 0 67 -7 80 -40 80 -33 0 -40 13 -40 80 0 67 -7 80 -40 80 -33 0 -40 13 -40 80 0 67 -7 80 -40 80 -36 0 -40 13 -40 120 0 107 -4 120 -40 120 -33 0 -40 13 -40 80 0 67 -7 80 -40 80 -33 0 -40 13 -40 80 0 67 -7 80 -40 80 -33 0 -40 13 -40 80 0 67 -7 80 -40 80 -33 0 -40 13 -40 80 0 67 -7 80 -40 80 -33 0 -40 13 -40 80 0 67 -7 80 -40 80 -33 0 -40 13 -40 80 0 67 -7 80 -40 80 -33 0 -40 13 -40 80 0 67 -7 80 -40 80 -33 0 -40 13 -40 80 0 67 -7 80 -40 80 -36 0 -40 13 -40 120 0 107 -4 120 -40 120 -33 0 -40 13 -40 80 0 67 -7 80 -40 80 -33 0 -40 13 -40 80 0 67 -7 80 -40 80 -33 0 -40 13 -40 80 0 67 -7 80 -40 80 -33 0 -40 13 -40 80 0 67 -7 80 -40 80 -33 0 -40 13 -40 80 0 67 -7 80 -40 80 -33 0 -40 13 -40 80 0 67 -7 80 -40 80 -33 0 -40 13 -40 80 0 67 -7 80 -40 80 -36 0 -40 13 -40 120 0 107 -4 120 -40 120 -33 0 -40 13 -40 80 0 67 -7 80 -40 80 -27 0 -40 13 -40 40 0 27 -13 40 -40 40 -33 0 -40 13 -40 80 0 67 -7 80 -40 80 -33 0 -40 13 -40 80 0 67 -7 80 -40 80 -33 0 -40 13 -40 80 0 67 -7 80 -40 80 -36 0 -40 13 -40 120 0 107 -4 120 -40 120 -33 0 -40 13 -40 80 0 67 -7 80 -40 80 -33 0 -40 13 -40 80 0 67 -7 80 -40 80 -33 0 -40 13 -40 80 0 67 -7 80 -40 80 -33 0 -40 13 -40 80 0 67 -7 80 -40 80 -33 0 -40 13 -40 80 0 67 -7 80 -40 80 -36 0 -40 13 -40 120 0 107 -4 120 -40 120 -33 0 -40 13 -40 80 0 67 -7 80 -40 80 -33 0 -40 13 -40 80 0 67 -7 80 -40 80 -33 0 -40 13 -40 80 0 67 -7 80 -40 80 -33 0 -40 13 -40 80 0 67 -7 80 -40 80 -33 0 -40 13 -40 80 0 67 -7 80 -40 80 -33 0 -40 13 -40 80 0 67 -7 80 -40 80 -36 0 -40 13 -40 120 0 107 -4 120 -40 120 -33 0 -40 13 -40 80 0 67 -7 80 -40 80 -33 0 -40 13 -40 80 0 67 -7 80 -40 80 -33 0 -40 13 -40 80 0 67 -7 80 -40 80 -33 0 -40 13 -40 80 0 67 -7 80 -40 80 -33 0 -40 13 -40 80 0 67 -7 80 -40 80 -33 0 -40 13 -40 80 0 67 -7 80 -40 80 -36 0 -40 13 -40 120 0 107 -4 120 -40 120 -33 0 -40 13 -40 80 0 67 -7 80 -40 80 -33 0 -40 13 -40 80 0 67 -7 80 -40 80 -33 0 -40 13 -40 80 0 67 -7 80 -40 80 -36 0 -40 13 -40 120 0 107 -4 120 -40 120 -33 0 -40 13 -40 80 0 67 -7 80 -40 80 -33 0 -40 13 -40 80 0 67 -7 80 -40 80 -33 0 -40 13 -40 80 0 67 -7 80 -40 80 -36 0 -40 13 -40 120 0 107 -4 120 -40 120 -33 0 -40 13 -40 80 0 67 -7 80 -40 80 -33 0 -40 13 -40 80 0 67 -7 80 -40 80 -33 0 -40 13 -40 80 0 67 -7 80 -40 80 -33 0 -40 13 -40 80 0 67 -7 80 -40 80 -27 0 -40 13 -40 40 0 27 -13 40 -40 40 -33 0 -40 13 -40 80 0 67 -7 80 -40 80 -33 0 -40 13 -40 80 0 67 -7 80 -40 80 -27 0 -40 13 -40 40 0 27 -13 40 -40 40 -33 0 -40 13 -40 80 0 67 -7 80 -40 80 -27 0 -40 13 -40 40 0 27 -13 40 -40 40 -33 0 -40 13 -40 80 0 67 -7 80 -40 80 -27 0 -40 13 -40 40 0 27 -13 40 -40 40 -33 0 -40 13 -40 80 0 67 -7 80 -40 80 -27 0 -40 13 -40 40 0 27 -13 40 -40 40 -27 0 -40 13 -40 40 0 27 -13 40 -40 40 -27 0 -40 13 -40 40 0 27 -13 40 -40 40 -27 0 -40 13 -40 40 0 27 -13 40 -40 40 -27 0 -40 13 -40 40 0 27 -13 40 -40 40 -27 0 -40 13 -40 40 0 27 -13 40 -40 40 -27 0 -40 13 -40 40 0 27 -13 40 -40 40 -27 0 -40 13 -40 40 0 27 -13 40 -40 40 -27 0 -40 13 -40 40 0 27 -13 40 -40 40 -27 0 -40 13 -40 40 0 27 -13 40 -40 40 -27 0 -40 13 -40 40 0 27 -13 40 -40 40 -27 0 -40 13 -40 40 0 27 -13 40 -40 40 -27 0 -40 13 -40 40 0 33 -13 40 -80 40 -67 0 -80 7 -80 40 0 27 -13 40 -40 40 -27 0 -40 13 -40 40 0 27 -13 40 -40 40 -27 0 -40 13 -40 40 0 33 -13 40 -80 40 -67 0 -80 7 -80 40 0 27 -13 40 -40 40 -27 0 -40 13 -40 40 0 33 -13 40 -80 40 -67 0 -80 7 -80 40 0 33 -13 40 -80 40 -67 0 -80 7 -80 40 0 27 -13 40 -40 40 -27 0 -40 13 -40 40 0 36 -13 40 -120 40 -107 0 -120 4 -120 40 0 33 -13 40 -80 40 -67 0 -80 7 -80 40 0 33 -13 40 -80 40 -67 0 -80 7 -80 40 0 36 -13 40 -120 40 -107 0 -120 4 -120 40 0 33 -13 40 -80 40 -67 0 -80 7 -80 40 0 37 -13 40 -160 40 -147 0 -160 3 -160 40 0 37 -13 40 -160 40 -147 0 -160 3 -160 40 0 37 -13 40 -160 40 -147 0 -160 3 -160 40 0 38 -13 40 -280 40 -267 0 -280 2 -280 40 0 39 -13 40 -480 40 -467 0 -480 -1 -480 -40z m800 -8480 c0 -37 13 -40 160 -40 147 0 160 -3 160 -40 0 -33 13 -40 80 -40 67 0 80 -7 80 -40 0 -27 13 -40 40 -40 27 0 40 -13 40 -40 0 -33 13 -40 80 -40 67 0 80 -7 80 -40 0 -27 13 -40 40 -40 27 0 40 -13 40 -40 0 -27 13 -40 40 -40 27 0 40 -13 40 -40 0 -27 13 -40 40 -40 27 0 40 -13 40 -40 0 -27 13 -40 40 -40 27 0 40 -13 40 -40 0 -27 13 -40 40 -40 27 0 40 -13 40 -40 0 -27 13 -40 40 -40 33 0 40 -13 40 -80 0 -67 7 -80 40 -80 33 0 40 -13 40 -80 0 -67 7 -80 40 -80 33 0 40 -13 40 -80 0 -67 7 -80 40 -80 33 0 40 -13 40 -80 0 -67 7 -80 40 -80 33 0 40 -13 40 -80 0 -67 7 -80 40 -80 33 0 40 -13 40 -80 0 -67 7 -80 40 -80 33 0 40 -13 40 -80 0 -67 7 -80 40 -80 36 0 40 -13 40 -120 0 -107 4 -120 40 -120 33 0 40 -13 40 -80 0 -67 7 -80 40 -80 33 0 40 -13 40 -80 0 -67 7 -80 40 -80 33 0 40 -13 40 -80 0 -67 7 -80 40 -80 36 0 40 -13 40 -120 0 -107 4 -120 40 -120 33 0 40 -13 40 -80 0 -67 7 -80 40 -80 33 0 40 -13 40 -80 0 -67 7 -80 40 -80 33 0 40 -13 40 -80 0 -67 7 -80 40 -80 36 0 40 -13 40 -120 0 -107 4 -120 40 -120 33 0 40 -13 40 -80 0 -67 7 -80 40 -80 36 0 40 -13 40 -120 0 -107 4 -120 40 -120 33 0 40 -13 40 -80 0 -67 7 -80 40 -80 36 0 40 -13 40 -120 0 -107 4 -120 40 -120 33 0 40 -13 40 -80 0 -67 7 -80 40 -80 33 0 40 -13 40 -80 0 -67 7 -80 40 -80 36 0 40 -13 40 -120 0 -107 4 -120 40 -120 36 0 40 -13 40 -120 0 -107 4 -120 40 -120 37 0 40 -13 40 -160 0 -147 3 -160 40 -160 37 0 40 -13 40 -200 0 -187 3 -200 40 -200 39 0 40 -13 40 -720 0 -707 -1 -720 -40 -720 -37 0 -40 -13 -40 -200 0 -187 -3 -200 -40 -200 -37 0 -40 -13 -40 -160 0 -147 -3 -160 -40 -160 -36 0 -40 -13 -40 -120 0 -107 -4 -120 -40 -120 -33 0 -40 -13 -40 -80 0 -67 -7 -80 -40 -80 -33 0 -40 -13 -40 -80 0 -67 -7 -80 -40 -80 -33 0 -40 -13 -40 -80 0 -67 -7 -80 -40 -80 -36 0 -40 -13 -40 -120 0 -107 -4 -120 -40 -120 -27 0 -40 -13 -40 -40 0 -27 -13 -40 -40 -40 -33 0 -40 -13 -40 -80 0 -67 -7 -80 -40 -80 -33 0 -40 -13 -40 -80 0 -67 -7 -80 -40 -80 -27 0 -40 -13 -40 -40 0 -27 -13 -40 -40 -40 -33 0 -40 -13 -40 -80 0 -67 -7 -80 -40 -80 -27 0 -40 -13 -40 -40 0 -27 -13 -40 -40 -40 -33 0 -40 -13 -40 -80 0 -67 -7 -80 -40 -80 -27 0 -40 -13 -40 -40 0 -27 -13 -40 -40 -40 -27 0 -40 -13 -40 -40 0 -27 -13 -40 -40 -40 -27 0 -40 -13 -40 -40 0 -27 -13 -40 -40 -40 -27 0 -40 -13 -40 -40 0 -27 -13 -40 -40 -40 -27 0 -40 -13 -40 -40 0 -27 -13 -40 -40 -40 -27 0 -40 -13 -40 -40 0 -27 -13 -40 -40 -40 -27 0 -40 -13 -40 -40 0 -27 -13 -40 -40 -40 -27 0 -40 -13 -40 -40 0 -27 -13 -40 -40 -40 -27 0 -40 -13 -40 -40 0 -27 -13 -40 -40 -40 -27 0 -40 -13 -40 -40 0 -27 -13 -40 -40 -40 -27 0 -40 -13 -40 -40 0 -27 -13 -40 -40 -40 -27 0 -40 -13 -40 -40 0 -27 -13 -40 -40 -40 -27 0 -40 -13 -40 -40 0 -27 -13 -40 -40 -40 -27 0 -40 -13 -40 -40 0 -27 -13 -40 -40 -40 -27 0 -40 -13 -40 -40 0 -27 -13 -40 -40 -40 -27 0 -40 -13 -40 -40 0 -27 -13 -40 -40 -40 -27 0 -40 -13 -40 -40 0 -27 -13 -40 -40 -40 -27 0 -40 -13 -40 -40 0 -33 -13 -40 -80 -40 -67 0 -80 -7 -80 -40 0 -27 -13 -40 -40 -40 -27 0 -40 -13 -40 -40 0 -27 -13 -40 -40 -40 -27 0 -40 -13 -40 -40 0 -33 -13 -40 -80 -40 -67 0 -80 -7 -80 -40 0 -27 -13 -40 -40 -40 -27 0 -40 -13 -40 -40 0 -27 -13 -40 -40 -40 -27 0 -40 -13 -40 -40 0 -33 -13 -40 -80 -40 -67 0 -80 -7 -80 -40 0 -33 -13 -40 -80 -40 -67 0 -80 -7 -80 -40 0 -27 -13 -40 -40 -40 -27 0 -40 -13 -40 -40 0 -33 -13 -40 -80 -40 -67 0 -80 -7 -80 -40 0 -33 -13 -40 -80 -40 -67 0 -80 -7 -80 -40 0 -27 -13 -40 -40 -40 -27 0 -40 -13 -40 -40 0 -33 -13 -40 -80 -40 -67 0 -80 -7 -80 -40 0 -33 -13 -40 -80 -40 -67 0 -80 -7 -80 -40 0 -33 -13 -40 -80 -40 -67 0 -80 -7 -80 -40 0 -27 -13 -40 -40 -40 -27 0 -40 -13 -40 -40 0 -33 -13 -40 -80 -40 -67 0 -80 -7 -80 -40 0 -36 -13 -40 -120 -40 -107 0 -120 -4 -120 -40 0 -33 -13 -40 -80 -40 -67 0 -80 -7 -80 -40 0 -33 -13 -40 -80 -40 -67 0 -80 -7 -80 -40 0 -36 -13 -40 -120 -40 -107 0 -120 -4 -120 -40 0 -33 -13 -40 -80 -40 -67 0 -80 -7 -80 -40 0 -36 -13 -40 -120 -40 -107 0 -120 -4 -120 -40 0 -36 -13 -40 -120 -40 -107 0 -120 -4 -120 -40 0 -36 -13 -40 -120 -40 -107 0 -120 -4 -120 -40 0 -36 -13 -40 -120 -40 -107 0 -120 -4 -120 -40 0 -33 -13 -40 -80 -40 -67 0 -80 -7 -80 -40 0 -33 -13 -40 -80 -40 -67 0 -80 -7 -80 -40 0 -36 -13 -40 -120 -40 -107 0 -120 -4 -120 -40 0 -33 -13 -40 -80 -40 -67 0 -80 -7 -80 -40 0 -36 -13 -40 -120 -40 -107 0 -120 -4 -120 -40 0 -33 -13 -40 -80 -40 -67 0 -80 -7 -80 -40 0 -33 -13 -40 -80 -40 -67 0 -80 -7 -80 -40 0 -33 -13 -40 -80 -40 -67 0 -80 -7 -80 -40 0 -33 -13 -40 -80 -40 -67 0 -80 -7 -80 -40 0 -27 -13 -40 -40 -40 -27 0 -40 -13 -40 -40 0 -33 -13 -40 -80 -40 -67 0 -80 -7 -80 -40 0 -33 -13 -40 -80 -40 -67 0 -80 -7 -80 -40 0 -27 -13 -40 -40 -40 -27 0 -40 -13 -40 -40 0 -33 -13 -40 -80 -40 -67 0 -80 -7 -80 -40 0 -27 -13 -40 -40 -40 -27 0 -40 -13 -40 -40 0 -33 -13 -40 -80 -40 -67 0 -80 -7 -80 -40 0 -27 -13 -40 -40 -40 -27 0 -40 -13 -40 -40 0 -27 -13 -40 -40 -40 -27 0 -40 -13 -40 -40 0 -33 -13 -40 -80 -40 -67 0 -80 -7 -80 -40 0 -27 -13 -40 -40 -40 -27 0 -40 -13 -40 -40 0 -27 -13 -40 -40 -40 -27 0 -40 -13 -40 -40 0 -27 -13 -40 -40 -40 -27 0 -40 -13 -40 -40 0 -27 -13 -40 -40 -40 -27 0 -40 -13 -40 -40 0 -27 -13 -40 -40 -40 -27 0 -40 -13 -40 -40 0 -33 -13 -40 -80 -40 l-80 0 0 -80 0 -80 -80 0 -80 0 0 -80 0 -80 -80 0 c-67 0 -80 -7 -80 -40 0 -27 -13 -40 -40 -40 -27 0 -40 -13 -40 -40 0 -27 -13 -40 -40 -40 -27 0 -40 -13 -40 -40 0 -27 -13 -40 -40 -40 -27 0 -40 -13 -40 -40 0 -33 -13 -40 -80 -40 -67 0 -80 -7 -80 -40 0 -33 -13 -40 -80 -40 -67 0 -80 -7 -80 -40 0 -37 -13 -40 -160 -40 -147 0 -160 3 -160 40 0 27 -13 40 -40 40 -27 0 -40 13 -40 40 0 33 -13 40 -80 40 -67 0 -80 7 -80 40 0 27 -13 40 -40 40 -33 0 -40 13 -40 80 0 67 -7 80 -40 80 -33 0 -40 13 -40 80 0 67 -7 80 -40 80 -37 0 -40 13 -40 200 0 187 3 200 40 200 36 0 40 13 40 120 0 107 4 120 40 120 33 0 40 13 40 80 0 67 7 80 40 80 33 0 40 13 40 80 0 67 7 80 40 80 33 0 40 13 40 80 0 67 7 80 40 80 33 0 40 13 40 80 0 67 7 80 40 80 36 0 40 13 40 120 0 107 4 120 40 120 33 0 40 13 40 80 0 67 7 80 40 80 36 0 40 13 40 120 0 107 4 120 40 120 33 0 40 13 40 80 0 67 7 80 40 80 36 0 40 13 40 120 0 107 4 120 40 120 33 0 40 13 40 80 0 67 7 80 40 80 33 0 40 13 40 80 0 67 7 80 40 80 36 0 40 13 40 120 0 107 4 120 40 120 33 0 40 13 40 80 0 67 7 80 40 80 36 0 40 13 40 120 0 107 4 120 40 120 33 0 40 13 40 80 0 67 7 80 40 80 36 0 40 13 40 120 0 107 4 120 40 120 33 0 40 13 40 80 0 67 7 80 40 80 33 0 40 13 40 80 0 67 7 80 40 80 33 0 40 13 40 80 0 67 7 80 40 80 36 0 40 13 40 120 0 107 4 120 40 120 33 0 40 13 40 80 0 67 7 80 40 80 33 0 40 13 40 80 0 67 7 80 40 80 36 0 40 13 40 120 0 107 4 120 40 120 33 0 40 13 40 80 0 67 7 80 40 80 33 0 40 13 40 80 0 67 7 80 40 80 33 0 40 13 40 80 0 67 7 80 40 80 36 0 40 13 40 120 0 107 4 120 40 120 33 0 40 13 40 80 0 67 7 80 40 80 33 0 40 13 40 80 0 67 7 80 40 80 33 0 40 13 40 80 0 67 7 80 40 80 36 0 40 13 40 120 0 107 4 120 40 120 33 0 40 13 40 80 0 67 7 80 40 80 33 0 40 13 40 80 0 67 7 80 40 80 36 0 40 13 40 120 0 107 4 120 40 120 33 0 40 13 40 80 0 67 7 80 40 80 33 0 40 13 40 80 0 67 7 80 40 80 33 0 40 13 40 80 0 67 7 80 40 80 36 0 40 13 40 120 0 107 4 120 40 120 33 0 40 13 40 80 0 67 7 80 40 80 36 0 40 13 40 120 0 107 4 120 40 120 33 0 40 13 40 80 0 67 7 80 40 80 33 0 40 13 40 80 0 67 7 80 40 80 36 0 40 13 40 120 0 107 4 120 40 120 33 0 40 13 40 80 0 67 7 80 40 80 33 0 40 13 40 80 0 67 7 80 40 80 36 0 40 13 40 120 0 107 4 120 40 120 33 0 40 13 40 80 0 67 7 80 40 80 33 0 40 13 40 80 0 67 7 80 40 80 33 0 40 13 40 80 0 67 7 80 40 80 33 0 40 13 40 80 0 67 7 80 40 80 36 0 40 13 40 120 0 107 4 120 40 120 33 0 40 13 40 80 0 67 7 80 40 80 33 0 40 13 40 80 0 67 7 80 40 80 36 0 40 13 40 120 0 107 4 120 40 120 33 0 40 13 40 80 0 67 7 80 40 80 36 0 40 13 40 120 0 107 4 120 40 120 33 0 40 13 40 80 0 67 7 80 40 80 33 0 40 13 40 80 0 67 7 80 40 80 33 0 40 13 40 80 0 67 7 80 40 80 36 0 40 13 40 120 0 107 4 120 40 120 33 0 40 13 40 80 0 67 7 80 40 80 33 0 40 13 40 80 0 67 7 80 40 80 36 0 40 13 40 120 0 107 4 120 40 120 33 0 40 13 40 80 0 67 7 80 40 80 33 0 40 13 40 80 0 67 7 80 40 80 36 0 40 13 40 120 0 107 4 120 40 120 33 0 40 13 40 80 0 67 7 80 40 80 33 0 40 13 40 80 0 67 7 80 40 80 33 0 40 13 40 80 0 67 7 80 40 80 33 0 40 13 40 80 0 67 7 80 40 80 36 0 40 13 40 120 0 107 4 120 40 120 33 0 40 13 40 80 0 67 7 80 40 80 33 0 40 13 40 80 0 67 7 80 40 80 36 0 40 13 40 120 0 107 4 120 40 120 33 0 40 13 40 80 0 67 7 80 40 80 27 0 40 13 40 40 0 27 13 40 40 40 33 0 40 13 40 80 0 67 7 80 40 80 27 0 40 13 40 40 0 27 13 40 40 40 27 0 40 13 40 40 0 27 13 40 40 40 27 0 40 13 40 40 0 27 13 40 40 40 27 0 40 13 40 40 0 27 13 40 40 40 27 0 40 13 40 40 0 27 13 40 40 40 27 0 40 13 40 40 0 27 13 40 40 40 27 0 40 13 40 40 0 33 13 40 80 40 67 0 80 7 80 40 0 33 13 40 80 40 67 0 80 7 80 40 0 33 13 40 80 40 67 0 80 7 80 40 0 36 13 40 120 40 107 0 120 4 120 40 0 39 13 40 440 40 427 0 440 -1 440 -40z" />
<ns0:path d="M18400 21160 c0 -33 -13 -40 -80 -40 -67 0 -80 -7 -80 -40 0 -27 -13 -40 -40 -40 -27 0 -40 -13 -40 -40 0 -27 -13 -40 -40 -40 -33 0 -40 -13 -40 -80 0 -67 -7 -80 -40 -80 -33 0 -40 -13 -40 -80 0 -67 -7 -80 -40 -80 -33 0 -40 -13 -40 -80 0 -67 -7 -80 -40 -80 -36 0 -40 -13 -40 -120 0 -107 -4 -120 -40 -120 -33 0 -40 -13 -40 -80 0 -67 -7 -80 -40 -80 -33 0 -40 -13 -40 -80 0 -67 -7 -80 -40 -80 -33 0 -40 -13 -40 -80 0 -67 -7 -80 -40 -80 -36 0 -40 -13 -40 -120 0 -107 -4 -120 -40 -120 -33 0 -40 -13 -40 -80 0 -67 -7 -80 -40 -80 -33 0 -40 -13 -40 -80 0 -67 -7 -80 -40 -80 -36 0 -40 -13 -40 -120 0 -107 -4 -120 -40 -120 -33 0 -40 -13 -40 -80 0 -67 -7 -80 -40 -80 -36 0 -40 -13 -40 -120 0 -107 -4 -120 -40 -120 -33 0 -40 -13 -40 -80 0 -67 -7 -80 -40 -80 -33 0 -40 -13 -40 -80 0 -67 -7 -80 -40 -80 -33 0 -40 -13 -40 -80 0 -67 -7 -80 -40 -80 -33 0 -40 -13 -40 -80 0 -67 -7 -80 -40 -80 -36 0 -40 -13 -40 -120 0 -107 -4 -120 -40 -120 -33 0 -40 -13 -40 -80 0 -67 -7 -80 -40 -80 -27 0 -40 -13 -40 -40 0 -27 -13 -40 -40 -40 -36 0 -40 -13 -40 -120 0 -107 -4 -120 -40 -120 -36 0 -40 -13 -40 -120 0 -107 -4 -120 -40 -120 -33 0 -40 -13 -40 -80 0 -67 -7 -80 -40 -80 -33 0 -40 -13 -40 -80 0 -67 -7 -80 -40 -80 -36 0 -40 -13 -40 -120 0 -107 -4 -120 -40 -120 -33 0 -40 -13 -40 -80 0 -67 -7 -80 -40 -80 -36 0 -40 -13 -40 -120 0 -107 -4 -120 -40 -120 -33 0 -40 -13 -40 -80 0 -67 -7 -80 -40 -80 -33 0 -40 -13 -40 -80 0 -67 -7 -80 -40 -80 -36 0 -40 -13 -40 -120 0 -107 -4 -120 -40 -120 -33 0 -40 -13 -40 -80 0 -67 -7 -80 -40 -80 -33 0 -40 -13 -40 -80 0 -67 -7 -80 -40 -80 -36 0 -40 -13 -40 -120 0 -107 -4 -120 -40 -120 -33 0 -40 -13 -40 -80 0 -67 -7 -80 -40 -80 -33 0 -40 -13 -40 -80 0 -67 -7 -80 -40 -80 -33 0 -40 -13 -40 -80 0 -67 -7 -80 -40 -80 -36 0 -40 -13 -40 -120 0 -107 -4 -120 -40 -120 -33 0 -40 -13 -40 -80 0 -67 -7 -80 -40 -80 -33 0 -40 -13 -40 -80 0 -67 -7 -80 -40 -80 -36 0 -40 -13 -40 -120 0 -107 -4 -120 -40 -120 -33 0 -40 -13 -40 -80 0 -67 -7 -80 -40 -80 -33 0 -40 -13 -40 -80 0 -67 -7 -80 -40 -80 -33 0 -40 -13 -40 -80 0 -67 -7 -80 -40 -80 -36 0 -40 -13 -40 -120 0 -107 -4 -120 -40 -120 -33 0 -40 -13 -40 -80 0 -67 -7 -80 -40 -80 -36 0 -40 -13 -40 -120 0 -107 -4 -120 -40 -120 -33 0 -40 -13 -40 -80 0 -67 -7 -80 -40 -80 -36 0 -40 -13 -40 -120 0 -107 -4 -120 -40 -120 -33 0 -40 -13 -40 -80 0 -67 -7 -80 -40 -80 -33 0 -40 -13 -40 -80 0 -67 -7 -80 -40 -80 -36 0 -40 -13 -40 -120 0 -107 -4 -120 -40 -120 -33 0 -40 -13 -40 -80 0 -67 -7 -80 -40 -80 -36 0 -40 -13 -40 -120 0 -107 -4 -120 -40 -120 -33 0 -40 -13 -40 -80 0 -67 -7 -80 -40 -80 -36 0 -40 -13 -40 -120 0 -107 -4 -120 -40 -120 -33 0 -40 -13 -40 -80 0 -67 -7 -80 -40 -80 -36 0 -40 -13 -40 -120 0 -107 4 -120 40 -120 27 0 40 13 40 40 0 36 13 40 120 40 107 0 120 4 120 40 0 33 13 40 80 40 67 0 80 7 80 40 0 33 13 40 80 40 67 0 80 7 80 40 0 33 13 40 80 40 67 0 80 7 80 40 0 36 13 40 120 40 107 0 120 4 120 40 0 36 13 40 120 40 107 0 120 4 120 40 0 33 13 40 80 40 67 0 80 7 80 40 0 36 13 40 120 40 107 0 120 4 120 40 0 36 13 40 120 40 107 0 120 4 120 40 0 33 13 40 80 40 67 0 80 7 80 40 0 36 13 40 120 40 107 0 120 4 120 40 0 36 13 40 120 40 107 0 120 4 120 40 0 33 13 40 80 40 67 0 80 7 80 40 0 33 13 40 80 40 67 0 80 7 80 40 0 36 13 40 120 40 107 0 120 4 120 40 0 33 13 40 80 40 67 0 80 7 80 40 0 33 13 40 80 40 67 0 80 7 80 40 0 33 13 40 80 40 67 0 80 7 80 40 0 27 13 40 40 40 27 0 40 13 40 40 0 33 13 40 80 40 67 0 80 7 80 40 0 33 13 40 80 40 67 0 80 7 80 40 0 33 13 40 80 40 67 0 80 7 80 40 0 27 13 40 40 40 27 0 40 13 40 40 0 33 13 40 80 40 67 0 80 7 80 40 0 27 13 40 40 40 27 0 40 13 40 40 0 33 13 40 80 40 67 0 80 7 80 40 0 27 13 40 40 40 27 0 40 13 40 40 0 33 13 40 80 40 67 0 80 7 80 40 0 27 13 40 40 40 27 0 40 13 40 40 0 27 13 40 40 40 27 0 40 13 40 40 0 27 13 40 40 40 27 0 40 13 40 40 0 33 13 40 80 40 67 0 80 7 80 40 0 27 13 40 40 40 27 0 40 13 40 40 0 27 13 40 40 40 27 0 40 13 40 40 0 27 13 40 40 40 27 0 40 13 40 40 0 27 13 40 40 40 27 0 40 13 40 40 0 27 13 40 40 40 27 0 40 13 40 40 0 27 13 40 40 40 27 0 40 13 40 40 0 27 13 40 40 40 27 0 40 13 40 40 0 27 13 40 40 40 27 0 40 13 40 40 0 27 13 40 40 40 27 0 40 13 40 40 0 27 13 40 40 40 33 0 40 13 40 80 0 67 7 80 40 80 27 0 40 13 40 40 0 27 13 40 40 40 27 0 40 13 40 40 0 27 13 40 40 40 33 0 40 13 40 80 0 67 7 80 40 80 27 0 40 13 40 40 0 27 13 40 40 40 27 0 40 13 40 40 0 27 13 40 40 40 33 0 40 13 40 80 0 67 7 80 40 80 33 0 40 13 40 80 0 67 7 80 40 80 33 0 40 13 40 80 0 67 7 80 40 80 33 0 40 13 40 80 0 67 7 80 40 80 36 0 40 13 40 120 0 107 4 120 40 120 36 0 40 13 40 120 0 107 4 120 40 120 39 0 40 13 40 680 0 667 -1 680 -40 680 -37 0 -40 13 -40 160 0 147 -3 160 -40 160 -36 0 -40 13 -40 120 0 107 -4 120 -40 120 -33 0 -40 13 -40 80 0 67 -7 80 -40 80 -36 0 -40 13 -40 120 0 107 -4 120 -40 120 -33 0 -40 13 -40 80 0 67 -7 80 -40 80 -33 0 -40 13 -40 80 0 67 -7 80 -40 80 -36 0 -40 13 -40 120 0 107 -4 120 -40 120 -33 0 -40 13 -40 80 0 67 -7 80 -40 80 -36 0 -40 13 -40 120 0 107 -4 120 -40 120 -33 0 -40 13 -40 80 0 67 -7 80 -40 80 -33 0 -40 13 -40 80 0 67 -7 80 -40 80 -33 0 -40 13 -40 80 0 67 -7 80 -40 80 -36 0 -40 13 -40 120 0 107 -4 120 -40 120 -33 0 -40 13 -40 80 0 67 -7 80 -40 80 -33 0 -40 13 -40 80 0 67 -7 80 -40 80 -36 0 -40 13 -40 120 0 107 -4 120 -40 120 -33 0 -40 13 -40 80 0 67 -7 80 -40 80 -33 0 -40 13 -40 80 0 67 -7 80 -40 80 -33 0 -40 13 -40 80 0 67 -7 80 -40 80 -33 0 -40 13 -40 80 0 67 -7 80 -40 80 -33 0 -40 13 -40 80 0 67 -7 80 -40 80 -33 0 -40 13 -40 80 0 67 -7 80 -40 80 -27 0 -40 13 -40 40 0 27 -13 40 -40 40 -27 0 -40 13 -40 40 0 27 -13 40 -40 40 -27 0 -40 13 -40 40 0 36 -13 40 -120 40 -107 0 -120 -4 -120 -40z" />
</ns0:g>
</svg><svg x="120.0" y="670" width="760" height="235" viewBox="0 0 2288.000000 576.000000" overflow="visible"><ns0:g xmlns:ns0="http://www.w3.org/2000/svg" transform="translate(-64.000000,712.000000) scale(0.050000,-0.050000)" fill="#FFFFFF" stroke="none">
<ns0:path d="M29760 14200 c0 -33 -13 -40 -80 -40 -67 0 -80 -7 -80 -40 0 -27 -13 -40 -40 -40 -27 0 -40 -13 -40 -40 0 -27 -13 -40 -40 -40 -27 0 -40 -13 -40 -40 0 -27 -13 -40 -40 -40 -27 0 -40 -13 -40 -40 0 -27 -13 -40 -40 -40 -27 0 -40 -13 -40 -40 0 -27 -13 -40 -40 -40 -33 0 -40 -13 -40 -80 0 -67 -7 -80 -40 -80 -38 0 -40 -13 -40 -320 0 -307 2 -320 40 -320 33 0 40 -13 40 -80 0 -67 7 -80 40 -80 33 0 40 -13 40 -80 0 -67 7 -80 40 -80 27 0 40 -13 40 -40 0 -27 13 -40 40 -40 27 0 40 -13 40 -40 0 -27 13 -40 40 -40 27 0 40 -13 40 -40 0 -33 13 -40 80 -40 67 0 80 -7 80 -40 0 -36 13 -40 120 -40 107 0 120 -4 120 -40 0 -38 13 -40 240 -40 227 0 240 2 240 40 0 36 13 40 120 40 107 0 120 4 120 40 0 33 13 40 80 40 67 0 80 7 80 40 0 27 13 40 40 40 27 0 40 13 40 40 0 27 13 40 40 40 27 0 40 13 40 40 0 27 13 40 40 40 27 0 40 13 40 40 0 27 13 40 40 40 36 0 40 13 40 120 0 107 4 120 40 120 38 0 40 13 40 280 0 267 -2 280 -40 280 -33 0 -40 13 -40 80 0 67 -7 80 -40 80 -33 0 -40 13 -40 80 0 67 -7 80 -40 80 -27 0 -40 13 -40 40 0 27 -13 40 -40 40 -27 0 -40 13 -40 40 0 27 -13 40 -40 40 -27 0 -40 13 -40 40 0 27 -13 40 -40 40 -27 0 -40 13 -40 40 0 33 -13 40 -80 40 -67 0 -80 7 -80 40 0 39 -13 40 -400 40 -387 0 -400 -1 -400 -40z" />
<ns0:path d="M6160 14080 c0 -67 -7 -80 -40 -80 -33 0 -40 -13 -40 -80 0 -67 -7 -80 -40 -80 -33 0 -40 -13 -40 -80 0 -67 -7 -80 -40 -80 -33 0 -40 -13 -40 -80 0 -67 -7 -80 -40 -80 -36 0 -40 -13 -40 -120 0 -107 -4 -120 -40 -120 -33 0 -40 -13 -40 -80 0 -67 -7 -80 -40 -80 -33 0 -40 -13 -40 -80 0 -67 -7 -80 -40 -80 -33 0 -40 -13 -40 -80 0 -67 -7 -80 -40 -80 -36 0 -40 -13 -40 -120 0 -107 -4 -120 -40 -120 -33 0 -40 -13 -40 -80 0 -67 -7 -80 -40 -80 -36 0 -40 -13 -40 -120 0 -107 -4 -120 -40 -120 -33 0 -40 -13 -40 -80 0 -67 -7 -80 -40 -80 -36 0 -40 -13 -40 -120 0 -107 -4 -120 -40 -120 -33 0 -40 -13 -40 -80 0 -67 -7 -80 -40 -80 -33 0 -40 -13 -40 -80 0 -67 -7 -80 -40 -80 -33 0 -40 -13 -40 -80 0 -67 -7 -80 -40 -80 -33 0 -40 -13 -40 -80 0 -67 -7 -80 -40 -80 -36 0 -40 -13 -40 -120 0 -107 -4 -120 -40 -120 -33 0 -40 -13 -40 -80 0 -67 -7 -80 -40 -80 -33 0 -40 -13 -40 -80 0 -67 -7 -80 -40 -80 -36 0 -40 -13 -40 -120 0 -107 -4 -120 -40 -120 -33 0 -40 -13 -40 -80 0 -67 -7 -80 -40 -80 -33 0 -40 -13 -40 -80 0 -67 -7 -80 -40 -80 -33 0 -40 -13 -40 -80 0 -67 -7 -80 -40 -80 -36 0 -40 -13 -40 -120 0 -107 -4 -120 -40 -120 -33 0 -40 -13 -40 -80 0 -67 -7 -80 -40 -80 -36 0 -40 -13 -40 -120 0 -107 -4 -120 -40 -120 -33 0 -40 -13 -40 -80 0 -67 -7 -80 -40 -80 -33 0 -40 -13 -40 -80 0 -67 -7 -80 -40 -80 -33 0 -40 -13 -40 -80 0 -67 -7 -80 -40 -80 -33 0 -40 -13 -40 -80 0 -67 -7 -80 -40 -80 -36 0 -40 -13 -40 -120 0 -107 -4 -120 -40 -120 -33 0 -40 -13 -40 -80 0 -67 -7 -80 -40 -80 -33 0 -40 -13 -40 -80 0 -67 -7 -80 -40 -80 -33 0 -40 -13 -40 -80 0 -67 -7 -80 -40 -80 -36 0 -40 -13 -40 -120 0 -107 -4 -120 -40 -120 -33 0 -40 -13 -40 -80 0 -67 -7 -80 -40 -80 -33 0 -40 -13 -40 -80 0 -67 -7 -80 -40 -80 -36 0 -40 -13 -40 -120 0 -107 -4 -120 -40 -120 -33 0 -40 -13 -40 -80 0 -67 -7 -80 -40 -80 -33 0 -40 -13 -40 -80 0 -67 -7 -80 -40 -80 -33 0 -40 -13 -40 -80 0 -67 -7 -80 -40 -80 -33 0 -40 -13 -40 -80 0 -67 -7 -80 -40 -80 -36 0 -40 -13 -40 -120 0 -107 -4 -120 -40 -120 -33 0 -40 -13 -40 -80 0 -67 -7 -80 -40 -80 -33 0 -40 -13 -40 -80 0 -67 -7 -80 -40 -80 -36 0 -40 -13 -40 -120 0 -107 -4 -120 -40 -120 -33 0 -40 -13 -40 -80 0 -67 -7 -80 -40 -80 -33 0 -40 -13 -40 -80 0 -67 -7 -80 -40 -80 -33 0 -40 -13 -40 -80 0 -67 -7 -80 -40 -80 -36 0 -40 -13 -40 -120 0 -107 -4 -120 -40 -120 -33 0 -40 -13 -40 -80 0 -67 -7 -80 -40 -80 -33 0 -40 -13 -40 -80 0 -67 -7 -80 -40 -80 -33 0 -40 -13 -40 -80 0 -67 -7 -80 -40 -80 -33 0 -40 -13 -40 -80 0 -67 -7 -80 -40 -80 -36 0 -40 -13 -40 -120 0 -107 -4 -120 -40 -120 -33 0 -40 -13 -40 -80 0 -67 -7 -80 -40 -80 -33 0 -40 -13 -40 -80 0 -67 -7 -80 -40 -80 -36 0 -40 -13 -40 -120 0 -107 -4 -120 -40 -120 -33 0 -40 -13 -40 -80 0 -67 -7 -80 -40 -80 -33 0 -40 -13 -40 -80 0 -67 -7 -80 -40 -80 -33 0 -40 -13 -40 -80 l0 -80 600 0 600 0 0 80 c0 67 7 80 40 80 33 0 40 13 40 80 0 67 7 80 40 80 36 0 40 13 40 120 0 107 4 120 40 120 36 0 40 13 40 120 0 107 4 120 40 120 36 0 40 13 40 120 0 107 4 120 40 120 36 0 40 13 40 120 0 107 4 120 40 120 33 0 40 13 40 80 0 67 7 80 40 80 36 0 40 13 40 120 0 107 4 120 40 120 33 0 40 13 40 80 0 67 7 80 40 80 36 0 40 13 40 120 0 107 4 120 40 120 36 0 40 13 40 120 0 107 4 120 40 120 33 0 40 13 40 80 0 67 7 80 40 80 36 0 40 13 40 120 0 107 4 120 40 120 36 0 40 13 40 120 0 107 4 120 40 120 33 0 40 13 40 80 0 67 7 80 40 80 33 0 40 13 40 80 0 67 7 80 40 80 33 0 40 13 40 80 l0 80 2520 0 2520 0 0 -120 c0 -107 4 -120 40 -120 33 0 40 -13 40 -80 0 -67 7 -80 40 -80 33 0 40 -13 40 -80 0 -67 7 -80 40 -80 36 0 40 -13 40 -120 0 -107 4 -120 40 -120 33 0 40 -13 40 -80 0 -67 7 -80 40 -80 36 0 40 -13 40 -120 0 -107 4 -120 40 -120 33 0 40 -13 40 -80 0 -67 7 -80 40 -80 33 0 40 -13 40 -80 0 -67 7 -80 40 -80 36 0 40 -13 40 -120 0 -107 4 -120 40 -120 33 0 40 -13 40 -80 0 -67 7 -80 40 -80 33 0 40 -13 40 -80 0 -67 7 -80 40 -80 36 0 40 -13 40 -120 0 -107 4 -120 40 -120 33 0 40 -13 40 -80 0 -67 7 -80 40 -80 36 0 40 -13 40 -120 0 -107 4 -120 40 -120 33 0 40 -13 40 -80 0 -67 7 -80 40 -80 33 0 40 -13 40 -80 0 -67 7 -80 40 -80 36 0 40 -13 40 -120 0 -107 4 -120 40 -120 33 0 40 -13 40 -80 l0 -80 1000 0 1000 0 0 120 c0 107 -4 120 -40 120 -33 0 -40 13 -40 80 0 67 -7 80 -40 80 -33 0 -40 13 -40 80 0 67 -7 80 -40 80 -33 0 -40 13 -40 80 0 67 -7 80 -40 80 -33 0 -40 13 -40 80 0 67 -7 80 -40 80 -36 0 -40 13 -40 120 0 107 -4 120 -40 120 -33 0 -40 13 -40 80 0 67 -7 80 -40 80 -33 0 -40 13 -40 80 0 67 -7 80 -40 80 -33 0 -40 13 -40 80 0 67 -7 80 -40 80 -36 0 -40 13 -40 120 0 107 -4 120 -40 120 -27 0 -40 13 -40 40 0 27 -13 40 -40 40 -36 0 -40 13 -40 120 0 107 -4 120 -40 120 -33 0 -40 13 -40 80 0 67 -7 80 -40 80 -33 0 -40 13 -40 80 0 67 -7 80 -40 80 -33 0 -40 13 -40 80 0 67 -7 80 -40 80 -36 0 -40 13 -40 120 0 107 -4 120 -40 120 -33 0 -40 13 -40 80 0 67 -7 80 -40 80 -33 0 -40 13 -40 80 0 67 -7 80 -40 80 -33 0 -40 13 -40 80 0 67 -7 80 -40 80 -33 0 -40 13 -40 80 0 67 -7 80 -40 80 -36 0 -40 13 -40 120 0 107 -4 120 -40 120 -33 0 -40 13 -40 80 0 67 -7 80 -40 80 -36 0 -40 13 -40 120 0 107 -4 120 -40 120 -33 0 -40 13 -40 80 0 67 -7 80 -40 80 -33 0 -40 13 -40 80 0 67 -7 80 -40 80 -33 0 -40 13 -40 80 0 67 -7 80 -40 80 -36 0 -40 13 -40 120 0 107 -4 120 -40 120 -33 0 -40 13 -40 80 0 67 -7 80 -40 80 -33 0 -40 13 -40 80 0 67 -7 80 -40 80 -33 0 -40 13 -40 80 0 67 -7 80 -40 80 -36 0 -40 13 -40 120 0 107 -4 120 -40 120 -33 0 -40 13 -40 80 0 67 -7 80 -40 80 -33 0 -40 13 -40 80 0 67 -7 80 -40 80 -33 0 -40 13 -40 80 0 67 -7 80 -40 80 -33 0 -40 13 -40 80 0 67 -7 80 -40 80 -36 0 -40 13 -40 120 0 107 -4 120 -40 120 -33 0 -40 13 -40 80 0 67 -7 80 -40 80 -33 0 -40 13 -40 80 0 67 -7 80 -40 80 -36 0 -40 13 -40 120 0 107 -4 120 -40 120 -33 0 -40 13 -40 80 0 67 -7 80 -40 80 -33 0 -40 13 -40 80 0 67 -7 80 -40 80 -36 0 -40 13 -40 120 0 107 -4 120 -40 120 -33 0 -40 13 -40 80 0 67 -7 80 -40 80 -33 0 -40 13 -40 80 0 67 -7 80 -40 80 -33 0 -40 13 -40 80 0 67 -7 80 -40 80 -36 0 -40 13 -40 120 0 107 -4 120 -40 120 -33 0 -40 13 -40 80 0 67 -7 80 -40 80 -33 0 -40 13 -40 80 0 67 -7 80 -40 80 -36 0 -40 13 -40 120 0 107 -4 120 -40 120 -33 0 -40 13 -40 80 0 67 -7 80 -40 80 -33 0 -40 13 -40 80 0 67 -7 80 -40 80 -33 0 -40 13 -40 80 0 67 -7 80 -40 80 -36 0 -40 13 -40 120 0 107 -4 120 -40 120 -33 0 -40 13 -40 80 0 67 -7 80 -40 80 -33 0 -40 13 -40 80 0 67 -7 80 -40 80 -36 0 -40 13 -40 120 0 107 -4 120 -40 120 -33 0 -40 13 -40 80 0 67 -7 80 -40 80 -33 0 -40 13 -40 80 0 67 -7 80 -40 80 -36 0 -40 13 -40 120 0 107 -4 120 -40 120 -33 0 -40 13 -40 80 0 67 -7 80 -40 80 -33 0 -40 13 -40 80 0 67 -7 80 -40 80 -33 0 -40 13 -40 80 l0 80 -560 0 -560 0 0 -80z m160 -1960 c0 -107 4 -120 40 -120 33 0 40 -13 40 -80 0 -67 7 -80 40 -80 33 0 40 -13 40 -80 0 -67 7 -80 40 -80 36 0 40 -13 40 -120 0 -107 4 -120 40 -120 33 0 40 -13 40 -80 0 -67 7 -80 40 -80 36 0 40 -13 40 -120 0 -107 4 -120 40 -120 33 0 40 -13 40 -80 0 -67 7 -80 40 -80 33 0 40 -13 40 -80 0 -67 7 -80 40 -80 36 0 40 -13 40 -120 0 -107 4 -120 40 -120 33 0 40 -13 40 -80 0 -67 7 -80 40 -80 33 0 40 -13 40 -80 0 -67 7 -80 40 -80 36 0 40 -13 40 -120 0 -107 4 -120 40 -120 33 0 40 -13 40 -80 0 -67 7 -80 40 -80 36 0 40 -13 40 -120 0 -107 4 -120 40 -120 33 0 40 -13 40 -80 0 -67 7 -80 40 -80 33 0 40 -13 40 -80 0 -67 7 -80 40 -80 33 0 40 -13 40 -80 0 -67 7 -80 40 -80 36 0 40 -13 40 -120 0 -107 4 -120 40 -120 33 0 40 -13 40 -80 0 -67 7 -80 40 -80 33 0 40 -13 40 -80 0 -67 7 -80 40 -80 36 0 40 -13 40 -120 0 -107 4 -120 40 -120 33 0 40 -13 40 -80 0 -67 7 -80 40 -80 36 0 40 -13 40 -120 0 -107 4 -120 40 -120 33 0 40 -13 40 -80 0 -67 7 -80 40 -80 33 0 40 -13 40 -80 0 -67 7 -80 40 -80 36 0 40 -13 40 -120 0 -107 4 -120 40 -120 33 0 40 -13 40 -80 l0 -80 -2160 0 c-2147 0 -2160 0 -2160 40 0 27 13 40 40 40 36 0 40 13 40 120 0 107 4 120 40 120 33 0 40 13 40 80 0 67 7 80 40 80 33 0 40 13 40 80 0 67 7 80 40 80 36 0 40 13 40 120 0 107 4 120 40 120 33 0 40 13 40 80 0 67 7 80 40 80 36 0 40 13 40 120 0 107 4 120 40 120 33 0 40 13 40 80 0 67 7 80 40 80 36 0 40 13 40 120 0 107 4 120 40 120 33 0 40 13 40 80 0 67 7 80 40 80 33 0 40 13 40 80 0 67 7 80 40 80 33 0 40 13 40 80 0 67 7 80 40 80 36 0 40 13 40 120 0 107 4 120 40 120 33 0 40 13 40 80 0 67 7 80 40 80 33 0 40 13 40 80 0 67 7 80 40 80 36 0 40 13 40 120 0 107 4 120 40 120 33 0 40 13 40 80 0 67 7 80 40 80 36 0 40 13 40 120 0 107 4 120 40 120 33 0 40 13 40 80 0 67 7 80 40 80 33 0 40 13 40 80 0 67 7 80 40 80 36 0 40 13 40 120 0 107 4 120 40 120 33 0 40 13 40 80 0 67 7 80 40 80 36 0 40 13 40 120 0 107 4 120 40 120 33 0 40 13 40 80 0 67 7 80 40 80 33 0 40 13 40 80 0 67 7 80 40 80 36 0 40 13 40 120 0 107 4 120 40 120 33 0 40 13 40 80 0 67 7 80 40 80 27 0 40 13 40 40 0 27 13 40 40 40 36 0 40 -13 40 -120z" />
<ns0:path d="M13520 13520 c0 -467 1 -480 40 -480 40 0 40 -13 40 -4480 0 -4467 0 -4480 -40 -4480 -39 0 -40 -13 -40 -560 l0 -560 960 0 960 0 0 480 c0 467 -1 480 -40 480 -40 0 -40 13 -40 4680 0 4667 0 4680 40 4680 38 0 40 13 40 320 0 307 -2 320 -40 320 -27 0 -40 13 -40 40 0 39 -13 40 -920 40 l-920 0 0 -480z" />
<ns0:path d="M17840 13120 c0 -867 1 -880 40 -880 40 0 40 -13 40 -3800 0 -3787 0 -3800 -40 -3800 -39 0 -40 -13 -40 -840 l0 -840 2280 0 c2267 0 2280 0 2280 40 0 38 13 40 280 40 267 0 280 2 280 40 0 37 13 40 200 40 187 0 200 3 200 40 0 37 13 40 160 40 147 0 160 3 160 40 0 37 13 40 160 40 147 0 160 3 160 40 0 36 13 40 120 40 107 0 120 4 120 40 0 33 13 40 80 40 67 0 80 7 80 40 0 36 13 40 120 40 107 0 120 4 120 40 0 27 13 40 40 40 27 0 40 13 40 40 0 33 13 40 80 40 67 0 80 7 80 40 0 33 13 40 80 40 67 0 80 7 80 40 0 33 13 40 80 40 67 0 80 7 80 40 0 27 13 40 40 40 27 0 40 13 40 40 0 33 13 40 80 40 67 0 80 7 80 40 0 27 13 40 40 40 27 0 40 13 40 40 0 27 13 40 40 40 27 0 40 13 40 40 0 33 13 40 80 40 67 0 80 7 80 40 0 27 13 40 40 40 27 0 40 13 40 40 0 27 13 40 40 40 27 0 40 13 40 40 0 27 13 40 40 40 27 0 40 13 40 40 0 27 13 40 40 40 27 0 40 13 40 40 0 27 13 40 40 40 27 0 40 13 40 40 0 27 13 40 40 40 27 0 40 13 40 40 0 27 13 40 40 40 33 0 40 13 40 80 0 67 7 80 40 80 27 0 40 13 40 40 0 27 13 40 40 40 27 0 40 13 40 40 0 27 13 40 40 40 33 0 40 13 40 80 0 67 7 80 40 80 27 0 40 13 40 40 0 27 13 40 40 40 33 0 40 13 40 80 0 67 7 80 40 80 27 0 40 13 40 40 0 27 13 40 40 40 33 0 40 13 40 80 0 67 7 80 40 80 33 0 40 13 40 80 0 67 7 80 40 80 33 0 40 13 40 80 0 67 7 80 40 80 36 0 40 13 40 120 0 107 4 120 40 120 36 0 40 13 40 120 0 107 4 120 40 120 36 0 40 13 40 120 0 107 4 120 40 120 37 0 40 13 40 200 0 187 3 200 40 200 37 0 40 13 40 200 0 187 3 200 40 200 39 0 40 13 40 880 0 867 -1 880 -40 880 -38 0 -40 13 -40 280 0 267 -2 280 -40 280 -37 0 -40 13 -40 160 0 147 -3 160 -40 160 -36 0 -40 13 -40 120 0 107 -4 120 -40 120 -36 0 -40 13 -40 120 0 107 -4 120 -40 120 -36 0 -40 13 -40 120 0 107 -4 120 -40 120 -33 0 -40 13 -40 80 0 67 -7 80 -40 80 -33 0 -40 13 -40 80 0 67 -7 80 -40 80 -33 0 -40 13 -40 80 0 67 -7 80 -40 80 -33 0 -40 13 -40 80 0 67 -7 80 -40 80 -27 0 -40 13 -40 40 0 27 -13 40 -40 40 -33 0 -40 13 -40 80 0 67 -7 80 -40 80 -27 0 -40 13 -40 40 0 27 -13 40 -40 40 -27 0 -40 13 -40 40 0 27 -13 40 -40 40 -33 0 -40 13 -40 80 0 67 -7 80 -40 80 -27 0 -40 13 -40 40 0 27 -13 40 -40 40 -27 0 -40 13 -40 40 0 27 -13 40 -40 40 -27 0 -40 13 -40 40 0 27 -13 40 -40 40 -27 0 -40 13 -40 40 0 27 -13 40 -40 40 -27 0 -40 13 -40 40 0 27 -13 40 -40 40 -27 0 -40 13 -40 40 0 27 -13 40 -40 40 -27 0 -40 13 -40 40 0 27 -13 40 -40 40 -27 0 -40 13 -40 40 0 27 -13 40 -40 40 -27 0 -40 13 -40 40 0 27 -13 40 -40 40 -27 0 -40 13 -40 40 0 33 -13 40 -80 40 -67 0 -80 7 -80 40 0 27 -13 40 -40 40 -27 0 -40 13 -40 40 0 33 -13 40 -80 40 -67 0 -80 7 -80 40 0 33 -13 40 -80 40 -67 0 -80 7 -80 40 0 33 -13 40 -80 40 -67 0 -80 7 -80 40 0 33 -13 40 -80 40 -67 0 -80 7 -80 40 0 33 -13 40 -80 40 -67 0 -80 7 -80 40 0 33 -13 40 -80 40 -67 0 -80 7 -80 40 0 36 -13 40 -120 40 -107 0 -120 4 -120 40 0 37 -13 40 -160 40 -147 0 -160 3 -160 40 0 37 -13 40 -160 40 -147 0 -160 3 -160 40 0 37 -13 40 -200 40 -187 0 -200 3 -200 40 0 38 -13 40 -280 40 -267 0 -280 2 -280 40 0 40 -13 40 -2360 40 l-2360 0 0 -880z m3680 200 c0 -39 13 -40 400 -40 387 0 400 -1 400 -40 0 -37 13 -40 200 -40 187 0 200 -3 200 -40 0 -36 13 -40 120 -40 107 0 120 -4 120 -40 0 -36 13 -40 120 -40 107 0 120 -4 120 -40 0 -33 13 -40 80 -40 67 0 80 -7 80 -40 0 -33 13 -40 80 -40 67 0 80 -7 80 -40 0 -33 13 -40 80 -40 67 0 80 -7 80 -40 0 -33 13 -40 80 -40 67 0 80 -7 80 -40 0 -27 13 -40 40 -40 27 0 40 -13 40 -40 0 -27 13 -40 40 -40 27 0 40 -13 40 -40 0 -33 13 -40 80 -40 67 0 80 -7 80 -40 0 -27 13 -40 40 -40 27 0 40 -13 40 -40 0 -27 13 -40 40 -40 27 0 40 -13 40 -40 0 -27 13 -40 40 -40 27 0 40 -13 40 -40 0 -27 13 -40 40 -40 27 0 40 -13 40 -40 0 -27 13 -40 40 -40 27 0 40 -13 40 -40 0 -27 13 -40 40 -40 27 0 40 -13 40 -40 0 -27 13 -40 40 -40 33 0 40 -13 40 -80 0 -67 7 -80 40 -80 27 0 40 -13 40 -40 0 -27 13 -40 40 -40 33 0 40 -13 40 -80 0 -67 7 -80 40 -80 33 0 40 -13 40 -80 0 -67 7 -80 40 -80 33 0 40 -13 40 -80 0 -67 7 -80 40 -80 33 0 40 -13 40 -80 0 -67 7 -80 40 -80 33 0 40 -13 40 -80 0 -67 7 -80 40 -80 33 0 40 -13 40 -80 0 -67 7 -80 40 -80 36 0 40 -13 40 -120 0 -107 4 -120 40 -120 37 0 40 -13 40 -160 0 -147 3 -160 40 -160 37 0 40 -13 40 -200 0 -187 3 -200 40 -200 38 0 40 -13 40 -320 0 -307 2 -320 40 -320 39 0 40 -13 40 -640 0 -627 -1 -640 -40 -640 -38 0 -40 -13 -40 -280 0 -267 -2 -280 -40 -280 -37 0 -40 -13 -40 -200 0 -187 -3 -200 -40 -200 -36 0 -40 -13 -40 -120 0 -107 -4 -120 -40 -120 -36 0 -40 -13 -40 -120 0 -107 -4 -120 -40 -120 -36 0 -40 -13 -40 -120 0 -107 -4 -120 -40 -120 -33 0 -40 -13 -40 -80 0 -67 -7 -80 -40 -80 -33 0 -40 -13 -40 -80 0 -67 -7 -80 -40 -80 -33 0 -40 -13 -40 -80 0 -67 -7 -80 -40 -80 -33 0 -40 -13 -40 -80 0 -67 -7 -80 -40 -80 -27 0 -40 -13 -40 -40 0 -27 -13 -40 -40 -40 -33 0 -40 -13 -40 -80 0 -67 -7 -80 -40 -80 -27 0 -40 -13 -40 -40 0 -27 -13 -40 -40 -40 -33 0 -40 -13 -40 -80 0 -67 -7 -80 -40 -80 -27 0 -40 -13 -40 -40 0 -27 -13 -40 -40 -40 -27 0 -40 -13 -40 -40 0 -27 -13 -40 -40 -40 -27 0 -40 -13 -40 -40 0 -27 -13 -40 -40 -40 -27 0 -40 -13 -40 -40 0 -27 -13 -40 -40 -40 -27 0 -40 -13 -40 -40 0 -27 -13 -40 -40 -40 -27 0 -40 -13 -40 -40 0 -27 -13 -40 -40 -40 -27 0 -40 -13 -40 -40 0 -33 -13 -40 -80 -40 -67 0 -80 -7 -80 -40 0 -27 -13 -40 -40 -40 -27 0 -40 -13 -40 -40 0 -27 -13 -40 -40 -40 -27 0 -40 -13 -40 -40 0 -33 -13 -40 -80 -40 -67 0 -80 -7 -80 -40 0 -33 -13 -40 -80 -40 -67 0 -80 -7 -80 -40 0 -33 -13 -40 -80 -40 -67 0 -80 -7 -80 -40 0 -36 -13 -40 -120 -40 -107 0 -120 -4 -120 -40 0 -36 -13 -40 -120 -40 -107 0 -120 -4 -120 -40 0 -37 -13 -40 -160 -40 -147 0 -160 -3 -160 -40 0 -38 -13 -40 -240 -40 -227 0 -240 -2 -240 -40 0 -40 -13 -40 -1160 -40 l-1160 0 0 400 c0 387 -1 400 -40 400 -40 0 -40 13 -40 4360 0 4347 0 4360 40 4360 33 0 40 13 40 80 l0 80 920 0 c907 0 920 -1 920 -40z" />
<ns0:path d="M43760 13320 c0 -27 -13 -40 -40 -40 -36 0 -40 -13 -40 -120 0 -107 -4 -120 -40 -120 -37 0 -40 -13 -40 -160 0 -147 -3 -160 -40 -160 -36 0 -40 -13 -40 -120 0 -107 -4 -120 -40 -120 -36 0 -40 -13 -40 -120 0 -107 -4 -120 -40 -120 -36 0 -40 -13 -40 -120 0 -107 -4 -120 -40 -120 -27 0 -40 -13 -40 -40 0 -27 -13 -40 -40 -40 -33 0 -40 -13 -40 -80 0 -67 -7 -80 -40 -80 -27 0 -40 -13 -40 -40 0 -27 -13 -40 -40 -40 -27 0 -40 -13 -40 -40 0 -27 -13 -40 -40 -40 -27 0 -40 -13 -40 -40 0 -27 -13 -40 -40 -40 -27 0 -40 -13 -40 -40 0 -27 -13 -40 -40 -40 -27 0 -40 -13 -40 -40 0 -27 -13 -40 -40 -40 -27 0 -40 -13 -40 -40 0 -33 -13 -40 -80 -40 -67 0 -80 -7 -80 -40 0 -33 -13 -40 -80 -40 -67 0 -80 -7 -80 -40 0 -33 -13 -40 -80 -40 -67 0 -80 -7 -80 -40 0 -36 -13 -40 -120 -40 -107 0 -120 -4 -120 -40 0 -38 -13 -40 -320 -40 l-320 0 0 -320 0 -320 680 0 c667 0 680 -1 680 -40 0 -27 -13 -40 -40 -40 -27 0 -40 -13 -40 -40 0 -27 13 -40 40 -40 40 0 40 -13 40 -2840 0 -2827 0 -2840 40 -2840 36 0 40 -13 40 -120 0 -107 4 -120 40 -120 36 0 40 -13 40 -120 0 -107 4 -120 40 -120 33 0 40 -13 40 -80 0 -67 7 -80 40 -80 33 0 40 -13 40 -80 0 -67 7 -80 40 -80 27 0 40 -13 40 -40 0 -27 13 -40 40 -40 33 0 40 -13 40 -80 0 -67 7 -80 40 -80 27 0 40 -13 40 -40 0 -27 13 -40 40 -40 27 0 40 -13 40 -40 0 -33 13 -40 80 -40 67 0 80 -7 80 -40 0 -27 13 -40 40 -40 27 0 40 -13 40 -40 0 -33 13 -40 80 -40 67 0 80 -7 80 -40 0 -27 13 -40 40 -40 27 0 40 -13 40 -40 0 -33 13 -40 80 -40 67 0 80 -7 80 -40 0 -36 13 -40 120 -40 107 0 120 -4 120 -40 0 -38 13 -40 280 -40 267 0 280 -2 280 -40 0 -38 13 -40 240 -40 227 0 240 2 240 40 0 38 13 40 240 40 227 0 240 2 240 40 0 36 13 40 120 40 107 0 120 4 120 40 0 36 13 40 120 40 107 0 120 4 120 40 0 33 13 40 80 40 67 0 80 7 80 40 0 33 13 40 80 40 67 0 80 7 80 40 0 27 13 40 40 40 27 0 40 13 40 40 0 27 13 40 40 40 27 0 40 13 40 40 0 33 13 40 80 40 67 0 80 7 80 40 0 27 13 40 40 40 33 0 40 13 40 80 0 67 7 80 40 80 33 0 40 13 40 80 0 67 -7 80 -40 80 -33 0 -40 13 -40 80 0 67 -7 80 -40 80 -27 0 -40 13 -40 40 0 27 -13 40 -40 40 -27 0 -40 13 -40 40 0 33 -13 40 -80 40 -67 0 -80 -7 -80 -40 0 -27 -13 -40 -40 -40 -27 0 -40 -13 -40 -40 0 -27 -13 -40 -40 -40 -27 0 -40 -13 -40 -40 0 -33 -13 -40 -80 -40 -67 0 -80 -7 -80 -40 0 -33 -13 -40 -80 -40 -67 0 -80 -7 -80 -40 0 -33 -13 -40 -80 -40 -67 0 -80 -7 -80 -40 0 -39 -13 -40 -400 -40 -387 0 -400 1 -400 40 0 33 -13 40 -80 40 -67 0 -80 7 -80 40 0 33 -13 40 -80 40 -67 0 -80 7 -80 40 0 27 -13 40 -40 40 -27 0 -40 13 -40 40 0 27 -13 40 -40 40 -27 0 -40 13 -40 40 0 27 -13 40 -40 40 -33 0 -40 13 -40 80 0 67 -7 80 -40 80 -33 0 -40 13 -40 80 0 67 -7 80 -40 80 -37 0 -40 13 -40 160 0 147 -3 160 -40 160 -40 0 -40 13 -40 2840 l0 2840 1200 0 1200 0 0 320 0 320 -1200 0 -1200 0 0 1200 0 1200 -320 0 c-307 0 -320 -2 -320 -40z" />
<ns0:path d="M36160 11160 c0 -37 -13 -40 -200 -40 -187 0 -200 -3 -200 -40 0 -37 -13 -40 -160 -40 -147 0 -160 -3 -160 -40 0 -36 -13 -40 -120 -40 -107 0 -120 -4 -120 -40 0 -36 -13 -40 -120 -40 -107 0 -120 -4 -120 -40 0 -33 -13 -40 -80 -40 -67 0 -80 -7 -80 -40 0 -33 -13 -40 -80 -40 -67 0 -80 -7 -80 -40 0 -27 -13 -40 -40 -40 -27 0 -40 -13 -40 -40 0 -33 -13 -40 -80 -40 -67 0 -80 -7 -80 -40 0 -33 -13 -40 -80 -40 -67 0 -80 -7 -80 -40 0 -27 -13 -40 -40 -40 -27 0 -40 -13 -40 -40 0 -27 -13 -40 -40 -40 -27 0 -40 -13 -40 -40 0 -27 -13 -40 -40 -40 -27 0 -40 -13 -40 -40 0 -27 -13 -40 -40 -40 -27 0 -40 -13 -40 -40 0 -27 -13 -40 -40 -40 -27 0 -40 -13 -40 -40 0 -27 -13 -40 -40 -40 -27 0 -40 -13 -40 -40 0 -27 -13 -40 -40 -40 -27 0 -40 -13 -40 -40 0 -27 -13 -40 -40 -40 -33 0 -40 -13 -40 -80 0 -67 -7 -80 -40 -80 -27 0 -40 -13 -40 -40 0 -27 -13 -40 -40 -40 -33 0 -40 -13 -40 -80 0 -67 -7 -80 -40 -80 -27 0 -40 -13 -40 -40 0 -27 -13 -40 -40 -40 -33 0 -40 -13 -40 -80 0 -67 -7 -80 -40 -80 -33 0 -40 -13 -40 -80 0 -67 -7 -80 -40 -80 -33 0 -40 -13 -40 -80 0 -67 -7 -80 -40 -80 -33 0 -40 -13 -40 -80 0 -67 -7 -80 -40 -80 -36 0 -40 -13 -40 -120 0 -107 -4 -120 -40 -120 -36 0 -40 -13 -40 -120 0 -107 -4 -120 -40 -120 -38 0 -40 -13 -40 -240 0 -227 -2 -240 -40 -240 -39 0 -40 -13 -40 -800 0 -787 1 -800 40 -800 37 0 40 -13 40 -200 0 -187 3 -200 40 -200 36 0 40 -13 40 -120 0 -107 4 -120 40 -120 36 0 40 -13 40 -120 0 -107 4 -120 40 -120 36 0 40 -13 40 -120 0 -107 4 -120 40 -120 27 0 40 -13 40 -40 0 -27 13 -40 40 -40 33 0 40 -13 40 -80 0 -67 7 -80 40 -80 33 0 40 -13 40 -80 0 -67 7 -80 40 -80 33 0 40 -13 40 -80 0 -67 7 -80 40 -80 27 0 40 -13 40 -40 0 -27 13 -40 40 -40 27 0 40 -13 40 -40 0 -27 13 -40 40 -40 33 0 40 -13 40 -80 0 -67 7 -80 40 -80 27 0 40 -13 40 -40 0 -27 13 -40 40 -40 27 0 40 -13 40 -40 0 -27 13 -40 40 -40 27 0 40 -13 40 -40 0 -27 13 -40 40 -40 27 0 40 -13 40 -40 0 -27 13 -40 40 -40 27 0 40 -13 40 -40 0 -27 13 -40 40 -40 27 0 40 -13 40 -40 0 -27 13 -40 40 -40 27 0 40 -13 40 -40 0 -33 13 -40 80 -40 67 0 80 -7 80 -40 0 -27 13 -40 40 -40 27 0 40 -13 40 -40 0 -33 13 -40 80 -40 67 0 80 -7 80 -40 0 -33 13 -40 80 -40 67 0 80 -7 80 -40 0 -33 13 -40 80 -40 67 0 80 -7 80 -40 0 -33 13 -40 80 -40 67 0 80 -7 80 -40 0 -33 13 -40 80 -40 67 0 80 -7 80 -40 0 -36 13 -40 120 -40 107 0 120 -4 120 -40 0 -36 13 -40 120 -40 107 0 120 -4 120 -40 0 -37 13 -40 200 -40 187 0 200 -3 200 -40 0 -39 13 -40 360 -40 347 0 360 -1 360 -40 0 -37 13 -40 160 -40 147 0 160 3 160 40 0 39 13 40 360 40 347 0 360 1 360 40 0 37 13 40 160 40 147 0 160 3 160 40 0 36 13 40 120 40 107 0 120 4 120 40 0 36 13 40 120 40 107 0 120 4 120 40 0 33 13 40 80 40 67 0 80 7 80 40 0 33 13 40 80 40 67 0 80 7 80 40 0 27 13 40 40 40 27 0 40 13 40 40 0 33 13 40 80 40 67 0 80 7 80 40 0 27 13 40 40 40 27 0 40 13 40 40 0 33 13 40 80 40 67 0 80 7 80 40 0 27 13 40 40 40 27 0 40 13 40 40 0 27 13 40 40 40 27 0 40 13 40 40 0 33 13 40 80 40 l80 0 0 80 c0 67 7 80 40 80 27 0 40 13 40 40 0 27 13 40 40 40 27 0 40 13 40 40 0 27 13 40 40 40 27 0 40 13 40 40 0 27 13 40 40 40 27 0 40 13 40 40 0 27 13 40 40 40 33 0 40 13 40 80 0 67 7 80 40 80 27 0 40 13 40 40 0 27 13 40 40 40 27 0 40 13 40 40 0 27 13 40 40 40 33 0 40 13 40 80 0 67 7 80 40 80 33 0 40 13 40 80 0 67 -7 80 -40 80 -27 0 -40 13 -40 40 0 27 -13 40 -40 40 -27 0 -40 13 -40 40 0 33 -13 40 -80 40 -67 0 -80 7 -80 40 0 36 -13 40 -120 40 l-120 0 0 -80 c0 -67 -7 -80 -40 -80 -33 0 -40 -13 -40 -80 0 -67 -7 -80 -40 -80 -27 0 -40 -13 -40 -40 0 -27 -13 -40 -40 -40 -27 0 -40 -13 -40 -40 0 -27 -13 -40 -40 -40 -27 0 -40 -13 -40 -40 0 -27 -13 -40 -40 -40 -27 0 -40 -13 -40 -40 0 -33 -13 -40 -80 -40 -67 0 -80 -7 -80 -40 0 -27 -13 -40 -40 -40 -27 0 -40 -13 -40 -40 0 -27 -13 -40 -40 -40 -27 0 -40 -13 -40 -40 0 -33 -13 -40 -80 -40 -67 0 -80 -7 -80 -40 0 -27 -13 -40 -40 -40 -27 0 -40 -13 -40 -40 0 -33 -13 -40 -80 -40 -67 0 -80 -7 -80 -40 0 -33 -13 -40 -80 -40 -67 0 -80 -7 -80 -40 0 -36 -13 -40 -120 -40 -107 0 -120 -4 -120 -40 0 -37 -13 -40 -200 -40 -187 0 -200 -3 -200 -40 0 -39 -13 -40 -600 -40 -587 0 -600 1 -600 40 0 37 -13 40 -160 40 -147 0 -160 3 -160 40 0 36 -13 40 -120 40 -107 0 -120 4 -120 40 0 33 -13 40 -80 40 -67 0 -80 7 -80 40 0 33 -13 40 -80 40 -67 0 -80 7 -80 40 0 27 -13 40 -40 40 -27 0 -40 13 -40 40 0 33 -13 40 -80 40 -67 0 -80 7 -80 40 0 27 -13 40 -40 40 -27 0 -40 13 -40 40 0 27 -13 40 -40 40 -27 0 -40 13 -40 40 0 27 -13 40 -40 40 -27 0 -40 13 -40 40 0 27 -13 40 -40 40 -27 0 -40 13 -40 40 0 27 -13 40 -40 40 -27 0 -40 13 -40 40 0 27 -13 40 -40 40 -27 0 -40 13 -40 40 0 27 -13 40 -40 40 -33 0 -40 13 -40 80 0 67 -7 80 -40 80 -27 0 -40 13 -40 40 0 27 -13 40 -40 40 -33 0 -40 13 -40 80 0 67 -7 80 -40 80 -33 0 -40 13 -40 80 0 67 -7 80 -40 80 -33 0 -40 13 -40 80 0 67 -7 80 -40 80 -36 0 -40 13 -40 120 0 107 -4 120 -40 120 -37 0 -40 13 -40 160 0 147 -3 160 -40 160 -37 0 -40 13 -40 200 0 187 -3 200 -40 200 -39 0 -40 13 -40 360 l0 360 3040 0 c3027 0 3040 0 3040 40 0 27 13 40 40 40 36 0 40 13 40 120 0 107 -4 120 -40 120 -39 0 -40 13 -40 360 0 347 -1 360 -40 360 -37 0 -40 13 -40 200 0 187 -3 200 -40 200 -36 0 -40 13 -40 120 0 107 -4 120 -40 120 -33 0 -40 13 -40 80 0 67 -7 80 -40 80 -36 0 -40 13 -40 120 0 107 -4 120 -40 120 -33 0 -40 13 -40 80 0 67 -7 80 -40 80 -33 0 -40 13 -40 80 0 67 -7 80 -40 80 -27 0 -40 13 -40 40 0 27 -13 40 -40 40 -27 0 -40 13 -40 40 0 27 -13 40 -40 40 -33 0 -40 13 -40 80 0 67 -7 80 -40 80 -27 0 -40 13 -40 40 0 27 -13 40 -40 40 -27 0 -40 13 -40 40 0 27 -13 40 -40 40 -27 0 -40 13 -40 40 0 27 -13 40 -40 40 -27 0 -40 13 -40 40 0 27 -13 40 -40 40 -27 0 -40 13 -40 40 0 27 -13 40 -40 40 -27 0 -40 13 -40 40 0 27 -13 40 -40 40 -27 0 -40 13 -40 40 0 27 -13 40 -40 40 -27 0 -40 13 -40 40 0 33 -13 40 -80 40 -67 0 -80 7 -80 40 0 27 -13 40 -40 40 -27 0 -40 13 -40 40 0 33 -13 40 -80 40 -67 0 -80 7 -80 40 0 33 -13 40 -80 40 -67 0 -80 7 -80 40 0 33 -13 40 -80 40 -67 0 -80 7 -80 40 0 36 -13 40 -120 40 -107 0 -120 4 -120 40 0 36 -13 40 -120 40 -107 0 -120 4 -120 40 0 37 -13 40 -200 40 -187 0 -200 3 -200 40 0 39 -13 40 -720 40 -707 0 -720 -1 -720 -40z m1040 -640 c0 -36 13 -40 120 -40 107 0 120 -4 120 -40 0 -36 13 -40 120 -40 107 0 120 -4 120 -40 0 -33 13 -40 80 -40 67 0 80 -7 80 -40 0 -27 13 -40 40 -40 27 0 40 -13 40 -40 0 -27 13 -40 40 -40 27 0 40 -13 40 -40 0 -27 13 -40 40 -40 27 0 40 -13 40 -40 0 -33 13 -40 80 -40 l80 0 0 -80 c0 -67 7 -80 40 -80 27 0 40 -13 40 -40 0 -27 13 -40 40 -40 33 0 40 -13 40 -80 0 -67 7 -80 40 -80 27 0 40 -13 40 -40 0 -27 13 -40 40 -40 36 0 40 -13 40 -120 0 -107 4 -120 40 -120 36 0 40 -13 40 -120 0 -107 4 -120 40 -120 36 0 40 -13 40 -120 0 -107 4 -120 40 -120 38 0 40 -13 40 -240 0 -227 2 -240 40 -240 38 0 40 -13 40 -240 l0 -240 -2200 0 -2200 0 0 120 c0 107 4 120 40 120 37 0 40 13 40 200 0 187 3 200 40 200 36 0 40 13 40 120 0 107 4 120 40 120 36 0 40 13 40 120 0 107 4 120 40 120 36 0 40 13 40 120 0 107 4 120 40 120 33 0 40 13 40 80 0 67 7 80 40 80 27 0 40 13 40 40 0 27 13 40 40 40 33 0 40 13 40 80 0 67 7 80 40 80 33 0 40 13 40 80 0 67 7 80 40 80 27 0 40 13 40 40 0 27 13 40 40 40 27 0 40 13 40 40 0 27 13 40 40 40 27 0 40 13 40 40 0 27 13 40 40 40 27 0 40 13 40 40 0 27 13 40 40 40 27 0 40 13 40 40 0 27 13 40 40 40 27 0 40 13 40 40 0 33 13 40 80 40 67 0 80 7 80 40 0 33 13 40 80 40 67 0 80 7 80 40 0 33 13 40 80 40 67 0 80 7 80 40 0 37 13 40 160 40 147 0 160 3 160 40 0 39 13 40 400 40 387 0 400 -1 400 -40z" />
<ns0:path d="M30000 11000 c0 -38 -13 -40 -320 -40 -307 0 -320 -2 -320 -40 0 -27 -13 -40 -40 -40 -38 0 -40 -13 -40 -280 0 -267 2 -280 40 -280 40 0 40 -13 40 -3280 0 -3267 0 -3280 -40 -3280 -39 0 -40 -13 -40 -360 0 -347 1 -360 40 -360 27 0 40 -13 40 -40 0 -39 13 -40 840 -40 l840 0 0 680 c0 667 -1 680 -40 680 -40 0 -40 13 -40 3120 0 3107 0 3120 40 3120 38 0 40 13 40 240 l0 240 -520 0 c-507 0 -520 -1 -520 -40z" />
</ns0:g>
</svg></svg>